<svg xmlns="http://www.w3.org/2000/svg" width="30" height="30" viewBox="0 0 30 30"><defs><style>.a{fill:#fff;}</style></defs><g transform="translate(0 0)"><g transform="translate(0)"><path class="a" d="M28.639,15.126V10.91A2.721,2.721,0,0,0,26.129,8.2L22.213,1.365a2.7,2.7,0,0,0-3.7-1L5.088,8.182H2.73A2.73,2.73,0,0,0,0,10.91V27.273A2.73,2.73,0,0,0,2.73,30H25.912a2.73,2.73,0,0,0,2.727-2.727V23.057A2.042,2.042,0,0,0,30,21.137V17.046A2.042,2.042,0,0,0,28.639,15.126ZM24.545,8.182H18.6l4.457-2.595ZM22.382,4.4l-6.49,3.778H13.2l8.509-4.954ZM19.2,1.546a1.319,1.319,0,0,1,1.013-.136,1.337,1.337,0,0,1,.819.633v0L10.49,8.182H7.8Zm8.078,25.727a1.365,1.365,0,0,1-1.364,1.364H2.73a1.365,1.365,0,0,1-1.364-1.364V10.91A1.365,1.365,0,0,1,2.73,9.546H25.912a1.365,1.365,0,0,1,1.364,1.364V15H23.185a4.091,4.091,0,1,0,0,8.182h4.091v4.091Zm1.364-6.136a.682.682,0,0,1-.682.682H23.185a2.727,2.727,0,0,1,0-5.455h4.773a.682.682,0,0,1,.682.682Z" transform="translate(-0.003 0)"/><path class="a" d="M342.7,277.341a1.364,1.364,0,1,0,1.364,1.364A1.365,1.365,0,0,0,342.7,277.341Z" transform="translate(-319.519 -259.613)"/></g></g></svg>