<svg xmlns="http://www.w3.org/2000/svg" width="26" height="24.06" viewBox="0 0 26 24.06"><title>Asset 2</title><g id="Layer_2" data-name="Layer 2"><g id="Layer_1-2" data-name="Layer 1"><g id="Group_2656" data-name="Group 2656"><path id="Path_21763" data-name="Path 21763" d="M24.69,0h-19A1.31,1.31,0,0,0,4.35,1.31v2h-3A1.32,1.32,0,0,0,0,4.62H0V21.5a2.55,2.55,0,0,0,2.54,2.56H16a.38.38,0,0,0,0-.76H4.38a2.53,2.53,0,0,0,.73-1.8V12.6a.38.38,0,1,0-.76,0v8.9a1.8,1.8,0,0,1-1.78,1.8h0a1.8,1.8,0,0,1-1.8-1.8V4.62a.55.55,0,0,1,.55-.55h3v7.1a.38.38,0,1,0,.76,0V1.31A.55.55,0,0,1,5.66.76h19a.55.55,0,0,1,.55.55h0V21.5a1.81,1.81,0,0,1-1.8,1.8h-6a.38.38,0,1,0,0,.76h6A2.56,2.56,0,0,0,26,21.5V1.31A1.31,1.31,0,0,0,24.69,0Z" fill="#fff"/><path id="Path_21764" data-name="Path 21764" d="M8.34,15.2h5.23a.91.91,0,0,0,.9-.9V9.07a.91.91,0,0,0-.9-.9H8.34a.91.91,0,0,0-.9.9V14.3A.91.91,0,0,0,8.34,15.2ZM8.2,9.07a.15.15,0,0,1,.14-.14h5.23a.15.15,0,0,1,.14.14V14.3a.14.14,0,0,1-.14.13H8.34a.13.13,0,0,1-.13-.13Z" fill="#fff"/><path id="Path_21765" data-name="Path 21765" d="M15.85,8.93h7.07a.38.38,0,0,0,0-.76H15.85a.38.38,0,1,0,0,.76Z" fill="#fff"/><path id="Path_21766" data-name="Path 21766" d="M15.85,12.07h7.07a.4.4,0,0,0,.38-.39.38.38,0,0,0-.38-.38H15.85a.39.39,0,0,0,0,.77Z" fill="#fff"/><path id="Path_21767" data-name="Path 21767" d="M15.85,15.2h7.07a.39.39,0,0,0,.38-.39.39.39,0,0,0-.38-.38H15.85a.4.4,0,0,0-.38.39A.38.38,0,0,0,15.85,15.2Z" fill="#fff"/><path id="Path_21768" data-name="Path 21768" d="M7.82,18.33h15.1a.38.38,0,0,0,0-.76H7.82a.38.38,0,0,0,0,.76Z" fill="#fff"/><path id="Path_21769" data-name="Path 21769" d="M7.82,21.46h15.1a.38.38,0,0,0,0-.76H7.82a.38.38,0,0,0,0,.76Z" fill="#fff"/><path id="Path_21770" data-name="Path 21770" d="M7.45,6.22v-4A.21.21,0,0,1,7.57,2a.59.59,0,0,1,.29-.07A.71.71,0,0,1,8.2,2a1.1,1.1,0,0,1,.26.35l1.2,2.31V2.19A.2.2,0,0,1,9.77,2a.71.71,0,0,1,.57,0,.21.21,0,0,1,.12.19v4a.22.22,0,0,1-.12.19.68.68,0,0,1-.28.07.51.51,0,0,1-.47-.26L8.26,3.73V6.22a.22.22,0,0,1-.12.19.64.64,0,0,1-.57,0,.21.21,0,0,1-.11-.19Z" fill="#fff"/><path id="Path_21771" data-name="Path 21771" d="M11.2,6.22v-4A.21.21,0,0,1,11.31,2a.43.43,0,0,1,.25-.07h2.21a.23.23,0,0,1,.19.11.5.5,0,0,1,.06.24.43.43,0,0,1-.07.25.21.21,0,0,1-.18.11H12V3.89H13a.23.23,0,0,1,.19.1.39.39,0,0,1,.07.23.33.33,0,0,1-.07.21.23.23,0,0,1-.19.1H12V5.77h1.76a.21.21,0,0,1,.18.11.45.45,0,0,1,.07.25.48.48,0,0,1-.06.24.23.23,0,0,1-.19.11H11.56a.45.45,0,0,1-.25-.07.18.18,0,0,1-.1-.18Z" fill="#fff"/><path id="Path_21772" data-name="Path 21772" d="M14.42,2.26A.28.28,0,0,1,14.59,2a.68.68,0,0,1,.35-.1c.14,0,.23.05.26.16l1,3.36.53-2.16c0-.15.17-.22.4-.22s.36.07.39.22L18,5.46,19,2.1c0-.11.12-.16.26-.16a.68.68,0,0,1,.35.1.26.26,0,0,1,.17.22s0,.05,0,.08l-1.23,3.9c-.06.18-.24.27-.53.27a.75.75,0,0,1-.33-.07.28.28,0,0,1-.18-.2l-.4-1.67-.4,1.67a.3.3,0,0,1-.18.2.86.86,0,0,1-.68,0,.31.31,0,0,1-.19-.2l-1.22-3.9A.19.19,0,0,1,14.42,2.26Z" fill="#fff"/><path id="Path_21773" data-name="Path 21773" d="M20,5.76a.48.48,0,0,1,.11-.29.29.29,0,0,1,.25-.14.31.31,0,0,1,.18.07,1.71,1.71,0,0,1,.2.18.94.94,0,0,0,.67.24.85.85,0,0,0,.5-.13.43.43,0,0,0,.2-.4A.48.48,0,0,0,22,5a1,1,0,0,0-.29-.25l-.39-.18-.42-.2a2.59,2.59,0,0,1-.39-.25,1,1,0,0,1-.29-.38,1.17,1.17,0,0,1-.1-.53,1.17,1.17,0,0,1,.13-.58.91.91,0,0,1,.35-.4A1.46,1.46,0,0,1,21.08,2a2,2,0,0,1,.54-.07l.34,0a2.33,2.33,0,0,1,.38.08.68.68,0,0,1,.33.16.31.31,0,0,1,.13.25.52.52,0,0,1-.09.29.24.24,0,0,1-.23.14,1,1,0,0,1-.3-.11,1.38,1.38,0,0,0-.56-.12.9.9,0,0,0-.51.12.41.41,0,0,0-.12.58l.08.09a1.25,1.25,0,0,0,.37.22,3.19,3.19,0,0,1,.48.21,4.39,4.39,0,0,1,.47.27,1.09,1.09,0,0,1,.37.43,1.3,1.3,0,0,1,.15.66,1.26,1.26,0,0,1-.4,1,1.61,1.61,0,0,1-1.07.34,1.94,1.94,0,0,1-1-.24C20.14,6.13,20,6,20,5.76Z" fill="#fff"/></g></g></g></svg>