<svg xmlns="http://www.w3.org/2000/svg" width="24.5" height="20.58" viewBox="0 0 24.5 20.58"><title>Asset 9</title><g id="Layer_2" data-name="Layer 2"><g id="Layer_1-2" data-name="Layer 1"><g id="Group_2667" data-name="Group 2667"><path id="Path_21827" data-name="Path 21827" d="M23.52,2.45h-4.9v-1A1.47,1.47,0,0,0,17.15,0H7.35A1.47,1.47,0,0,0,5.88,1.47h0v1H1a1,1,0,0,0-1,1V17.15a1,1,0,0,0,1,1h4.9v1a1.47,1.47,0,0,0,1.47,1.47h9.8a1.47,1.47,0,0,0,1.47-1.47v-1h4.9a1,1,0,0,0,1-1V3.43A1,1,0,0,0,23.52,2.45Zm-4.9,11.76h1.72a.25.25,0,0,1,0,.49H18.62ZM5.88,14.7H4.16a.25.25,0,0,1,0-.49H5.88ZM1,17.15V3.43h4.9V4.9H3.43a.49.49,0,0,0,0,1H5.88v1H4.41a.49.49,0,0,0,0,1H5.88v5.39H4.16a1.23,1.23,0,0,0,0,2.45H5.88v1.47Zm16.66,2a.49.49,0,0,1-.49.49H7.35a.49.49,0,0,1-.49-.49V1.47A.49.49,0,0,1,7.35,1h9.8a.49.49,0,0,1,.49.49Zm1-2V15.68h1.71a1.23,1.23,0,0,0,0-2.45H18.62V7.84h1.47a.49.49,0,1,0,0-1H18.62v-1h2.45a.49.49,0,0,0,0-1H18.62V3.43h4.9V17.15Z" fill="#fff"/><path id="Path_21828" data-name="Path 21828" d="M15.68,3.43H8.82a.49.49,0,1,0,0,1h6.86a.49.49,0,1,0,0-1Z" fill="#fff"/><path id="Path_21829" data-name="Path 21829" d="M14.21,14.21H10.29a1.47,1.47,0,0,0,0,2.94h3.92a1.47,1.47,0,0,0,0-2.94Zm0,2H10.29a.49.49,0,0,1,0-1h3.92a.49.49,0,0,1,0,1Z" fill="#fff"/><path id="Path_21830" data-name="Path 21830" d="M15.19,5.88a.49.49,0,0,0-.49-.49H9.8a.49.49,0,0,0,0,1h4.9A.49.49,0,0,0,15.19,5.88Z" fill="#fff"/><path id="Path_21831" data-name="Path 21831" d="M13.72,9.31H10.78a.49.49,0,0,0,0,1h2.94a.49.49,0,0,0,0-1Z" fill="#fff"/><path id="Path_21832" data-name="Path 21832" d="M13.72,11.27H10.78a.49.49,0,0,0,0,1h2.94a.49.49,0,0,0,0-1Z" fill="#fff"/></g></g></g></svg>