<svg xmlns="http://www.w3.org/2000/svg" width="24" height="24" viewBox="0 0 24 24"><title>Asset 6</title><g id="Layer_2" data-name="Layer 2"><g id="Layer_1-2" data-name="Layer 1"><g id="Group_2660" data-name="Group 2660"><path id="Path_21798" data-name="Path 21798" d="M7.55,3.25a.51.51,0,0,0,0-1,.51.51,0,0,0-.51.51.48.48,0,0,0,.15.36A.47.47,0,0,0,7.55,3.25Z" fill="#fff"/><path id="Path_21799" data-name="Path 21799" d="M9.82,3.25a.51.51,0,1,0-.51-.51.48.48,0,0,0,.15.36A.49.49,0,0,0,9.82,3.25Z" fill="#fff"/><path id="Path_21800" data-name="Path 21800" d="M13.4,3.25h5c.18,0,.32-.23.32-.51s-.15-.51-.32-.51h-5c-.18,0-.32.23-.32.51S13.22,3.25,13.4,3.25Z" fill="#fff"/><path id="Path_21801" data-name="Path 21801" d="M21.7,18.92H18.43c-.16,0-.28.23-.28.51s.12.51.28.51H21.7c.15,0,.28-.23.28-.51S21.85,18.92,21.7,18.92Z" fill="#fff"/><path id="Path_21802" data-name="Path 21802" d="M21.72,20.6H19.84c-.14,0-.26.23-.26.51s.12.5.26.5h1.88c.14,0,.26-.22.26-.5S21.86,20.6,21.72,20.6Z" fill="#fff"/><path id="Path_21803" data-name="Path 21803" d="M18.1,10.16a4,4,0,0,0-2.68,7l.07.06a4,4,0,0,0,5.22,0l.07-.06a4,4,0,0,0-2.68-7ZM16.4,16.6a1.89,1.89,0,0,1,2.51-.9,1.92,1.92,0,0,1,.9.9A3,3,0,0,1,16.4,16.6Zm1.12-2.69v-.27a.58.58,0,0,1,.58-.58.57.57,0,0,1,.58.58h0v.27a.58.58,0,0,1-1.16,0Zm3,1.93a2.92,2.92,0,0,0-1.13-1,1.62,1.62,0,0,0,.28-.9v-.28a1.61,1.61,0,0,0-3.21,0h0v.28a1.55,1.55,0,0,0,.28.9,2.92,2.92,0,0,0-1.13,1,3,3,0,1,1,4.91,0Z" fill="#fff"/><path id="Path_21804" data-name="Path 21804" d="M23.06,8.34H20.25V1.41A1.41,1.41,0,0,0,18.84,0H1.41A1.41,1.41,0,0,0,0,1.41v15a1.41,1.41,0,0,0,1.41,1.41h5.8V20.3a.47.47,0,0,0,.47.47H9.73a.47.47,0,0,0,.47-.47V17.86h2v5.2a.94.94,0,0,0,.93.94h9.94a.94.94,0,0,0,.94-.94V9.28a.94.94,0,0,0-.94-.94ZM1.41.94H18.84a.47.47,0,0,1,.47.47V4.13H.94V1.41A.47.47,0,0,1,1.41.94ZM9.26,19.83H8.14V14.56a.46.46,0,0,0-.46-.46H7.61l1-1.81,1,1.81a.47.47,0,0,0-.44.47ZM12.19,9.28v7.64h-2V15h.31a.47.47,0,0,0,.47-.47.46.46,0,0,0-.06-.23L9.06,11.12a.47.47,0,0,0-.64-.18.49.49,0,0,0-.17.18L6.4,14.33a.47.47,0,0,0,.41.7h.4v1.89H1.41a.47.47,0,0,1-.47-.47V5.06H19.31V8.34H13.13a1,1,0,0,0-.94.94ZM23.06,23.06H13.13V9.28h9.93V23.06Z" fill="#fff"/><path id="Path_21805" data-name="Path 21805" d="M9.65,7H3.55a.51.51,0,0,0,0,1h6.1a.51.51,0,0,0,0-1Z" fill="#fff"/><path id="Path_21806" data-name="Path 21806" d="M11.51,7a.5.5,0,0,0-.51.5.51.51,0,0,0,.51.51.5.5,0,0,0,.51-.5.51.51,0,0,0-.15-.36A.51.51,0,0,0,11.51,7Z" fill="#fff"/><path id="Path_21807" data-name="Path 21807" d="M8,9.25H3.55a.51.51,0,0,0,0,1H8a.51.51,0,1,0,0-1Z" fill="#fff"/></g></g></g></svg>