<svg xmlns="http://www.w3.org/2000/svg" width="24" height="24" viewBox="0 0 24 24"><title>Asset 3</title><g id="Layer_2" data-name="Layer 2"><g id="Layer_1-2" data-name="Layer 1"><g id="Group_2657" data-name="Group 2657"><path id="Path_21774" data-name="Path 21774" d="M22,2.4H20V1.6a1.6,1.6,0,0,0-3.2,0v.8H13.6V1.6a1.6,1.6,0,0,0-3.2,0v.8H7.2V1.6A1.6,1.6,0,0,0,4,1.6v.8H2a2,2,0,0,0-2,2v16a2,2,0,0,0,2,2H13.2a.4.4,0,0,0,.4-.4.39.39,0,0,0-.4-.4H2a1.2,1.2,0,0,1-1.2-1.2h0V8H23.2v6.78a.4.4,0,0,0,.8,0V4.39a2,2,0,0,0-2-2Zm-4.4-.8a.8.8,0,0,1,1.6,0V4a.8.8,0,1,1-1.6,0Zm-6.4,0a.8.8,0,0,1,1.6,0V4a.8.8,0,0,1-1.6,0Zm-6.4,0a.8.8,0,0,1,1.6,0V4A.8.8,0,0,1,4.8,4ZM23.2,7.19H.8V4.39A1.2,1.2,0,0,1,2,3.19H4V4A1.6,1.6,0,0,0,7.2,4v-.8h3.2V4a1.6,1.6,0,0,0,3.2,0v-.8h3.2V4A1.6,1.6,0,0,0,20,4v-.8h2a1.2,1.2,0,0,1,1.2,1.2h0Z" fill="#fff"/><path id="Path_21775" data-name="Path 21775" d="M11.25,10.79a.82.82,0,0,0-.82-.82H8.79a.82.82,0,0,0-.82.82H8V12a.82.82,0,0,0,.82.81h1.64a.82.82,0,0,0,.82-.81h0ZM8.79,12V10.79h1.64V12Z" fill="#fff"/><path id="Path_21776" data-name="Path 21776" d="M6.56,10.79A.82.82,0,0,0,5.74,10H4.1a.81.81,0,0,0-.82.82h0V12a.81.81,0,0,0,.82.81H5.74A.81.81,0,0,0,6.55,12h0ZM4.1,12V10.79H5.74V12Z" fill="#fff"/><path id="Path_21777" data-name="Path 21777" d="M19.9,12.84a.82.82,0,0,0,.82-.82h0V10.79A.81.81,0,0,0,19.9,10H18.26a.82.82,0,0,0-.82.82h0V12a.82.82,0,0,0,.82.81H19.9Zm-1.64-2.05H19.9V12H18.26Z" fill="#fff"/><path id="Path_21778" data-name="Path 21778" d="M11.25,14.38a.82.82,0,0,0-.82-.82H8.79a.82.82,0,0,0-.82.82H8v1.23a.82.82,0,0,0,.82.81h1.64a.82.82,0,0,0,.82-.81h0ZM8.79,15.61V14.38h1.64v1.23Z" fill="#fff"/><path id="Path_21779" data-name="Path 21779" d="M6.56,14.38a.82.82,0,0,0-.82-.82H4.1a.81.81,0,0,0-.82.82h0v1.23a.81.81,0,0,0,.82.81H5.74a.81.81,0,0,0,.81-.81h0ZM4.1,15.61V14.38H5.74v1.23Z" fill="#fff"/><path id="Path_21780" data-name="Path 21780" d="M10.43,17.15H8.79A.82.82,0,0,0,8,18H8v1.23a.82.82,0,0,0,.82.82h1.64a.82.82,0,0,0,.82-.82h0V18a.82.82,0,0,0-.82-.81Zm-1.64,2V18h1.64v1.23Z" fill="#fff"/><path id="Path_21781" data-name="Path 21781" d="M13.57,12.84h1.64A.82.82,0,0,0,16,12h0V10.79a.82.82,0,0,0-.82-.82H13.57a.82.82,0,0,0-.82.82h0V12a.82.82,0,0,0,.82.82Zm0-2.05h1.64V12H13.57Z" fill="#fff"/><path id="Path_21782" data-name="Path 21782" d="M12.76,15.61a.82.82,0,0,0,.82.82h0A.43.43,0,0,0,14,16a.4.4,0,0,0-.39-.39V14.38h1.64a.42.42,0,0,0,.43-.39.41.41,0,0,0-.39-.43H13.58a.82.82,0,0,0-.82.82h0Z" fill="#fff"/><path id="Path_21783" data-name="Path 21783" d="M5.74,17.15H4.1a.81.81,0,0,0-.82.81h0v1.23A.81.81,0,0,0,4.1,20H5.74a.81.81,0,0,0,.81-.82h0V18a.81.81,0,0,0-.81-.81Zm-1.64,2V18H5.74v1.23Z" fill="#fff"/><path id="Path_21784" data-name="Path 21784" d="M18.67,13.35A5.33,5.33,0,1,0,24,18.67a5.32,5.32,0,0,0-5.33-5.32Zm0,9.83a4.51,4.51,0,1,1,4.51-4.51h0A4.51,4.51,0,0,1,18.67,23.18Z" fill="#fff"/><path id="Path_21785" data-name="Path 21785" d="M21,17l-3.19,3.18-1.44-1.45a.42.42,0,0,0-.58,0,.4.4,0,0,0,0,.58l0,0L17.57,21a.4.4,0,0,0,.57,0l3.48-3.48a.4.4,0,0,0,0-.57.41.41,0,0,0-.58,0Z" fill="#fff"/></g></g></g></svg>