<svg xmlns="http://www.w3.org/2000/svg" width="29.93" height="19.35" viewBox="0 0 29.93 19.35"><title>Asset 5</title><g id="Layer_2" data-name="Layer 2"><g id="Layer_1-2" data-name="Layer 1"><g id="Group_2661" data-name="Group 2661"><path id="gym" d="M28,7.74V3.38A1.93,1.93,0,0,0,26.1,1.45a2,2,0,0,0-1,.26,1.94,1.94,0,0,0-3.86.22V7.74H8.67V1.93a1.94,1.94,0,0,0-3.86-.22,1.94,1.94,0,0,0-2.65.69,2,2,0,0,0-.27,1V7.74a1.94,1.94,0,0,0,0,3.87V16a1.94,1.94,0,0,0,1.94,1.94,2,2,0,0,0,1-.27,1.94,1.94,0,0,0,3.86-.22V11.61H21.26v5.81a1.94,1.94,0,0,0,3.86.22A1.94,1.94,0,0,0,27.77,17,2,2,0,0,0,28,16V11.61a1.94,1.94,0,0,0,0-3.87ZM1.89,10.64a1,1,0,0,1,0-1.94Zm1.94,6.29a1,1,0,0,1-1-1V3.38a1,1,0,0,1,1.94,0h0V16a1,1,0,0,1-1,1Zm3.87.49a1,1,0,1,1-1.93,0V1.93a1,1,0,1,1,1.93,0Zm1-6.78V8.7H21.26v1.94Zm15.49,6.78a1,1,0,1,1-1.93,0V1.93a1,1,0,1,1,1.93,0ZM27.06,16a1,1,0,0,1-1.93,0V3.38a1,1,0,1,1,1.93,0h0Zm1-5.33V8.7a1,1,0,0,1,0,1.94Z" fill="#fcfcfc"/></g></g></g></svg>