<svg xmlns="http://www.w3.org/2000/svg" width="24" height="24" viewBox="0 0 24 24"><title>Asset 10</title><g id="Layer_2" data-name="Layer 2"><g id="Layer_1-2" data-name="Layer 1"><g id="Group_2668" data-name="Group 2668"><path id="Path_21833" data-name="Path 21833" d="M3.6,16C1.81,16,0,16.55,0,17.6v4.8C0,23.45,1.81,24,3.6,24s3.6-.55,3.6-1.6V17.6C7.2,16.55,5.39,16,3.6,16Zm0,.8c1.82,0,2.8.57,2.8.8s-1,.8-2.8.8S.8,17.83.8,17.6,1.78,16.8,3.6,16.8Zm0,6.4c-1.82,0-2.8-.57-2.8-.8v-.56a6.3,6.3,0,0,0,2.8.56,6.3,6.3,0,0,0,2.8-.56v.56c0,.23-1,.8-2.8.8Zm0-1.6C1.78,21.6.8,21,.8,20.8v-.56a6.3,6.3,0,0,0,2.8.56,6.3,6.3,0,0,0,2.8-.56v.56c0,.23-1,.8-2.8.8Zm0-1.6c-1.82,0-2.8-.57-2.8-.8v-.56a6.3,6.3,0,0,0,2.8.56,6.3,6.3,0,0,0,2.8-.56v.56c0,.23-1,.8-2.8.8Z" fill="#fff"/><path id="Path_21834" data-name="Path 21834" d="M12,12.8c-1.79,0-3.6.55-3.6,1.6v8c0,1.05,1.81,1.6,3.6,1.6s3.6-.55,3.6-1.6v-8C15.6,13.35,13.79,12.8,12,12.8Zm0,.8c1.82,0,2.8.57,2.8.8s-1,.8-2.8.8-2.8-.57-2.8-.8S10.18,13.6,12,13.6Zm0,9.6c-1.82,0-2.8-.57-2.8-.8v-.56a7.25,7.25,0,0,0,5.6,0v.56C14.8,22.63,13.82,23.2,12,23.2Zm0-1.6c-1.82,0-2.8-.57-2.8-.8v-.56a7.25,7.25,0,0,0,5.6,0v.56C14.8,21,13.82,21.6,12,21.6ZM12,20c-1.82,0-2.8-.57-2.8-.8v-.56a7.25,7.25,0,0,0,5.6,0v.56c0,.23-1,.8-2.8.8Zm0-1.6c-1.82,0-2.8-.57-2.8-.8V17a7.25,7.25,0,0,0,5.6,0v.56c0,.23-1,.8-2.8.8Zm0-1.6c-1.82,0-2.8-.57-2.8-.8v-.56a7.25,7.25,0,0,0,5.6,0V16c0,.23-1,.8-2.8.8Z" fill="#fff"/><path id="Path_21835" data-name="Path 21835" d="M20.4,8c-1.79,0-3.6.55-3.6,1.6V22.4c0,1.05,1.81,1.6,3.6,1.6s3.6-.55,3.6-1.6V9.6C24,8.55,22.19,8,20.4,8Zm0,.8c1.82,0,2.8.57,2.8.8s-1,.8-2.8.8-2.8-.57-2.8-.8S18.58,8.8,20.4,8.8Zm0,14.4c-1.82,0-2.8-.57-2.8-.8v-.56a7.25,7.25,0,0,0,5.6,0v.56C23.2,22.63,22.22,23.2,20.4,23.2Zm0-1.6c-1.82,0-2.8-.57-2.8-.8v-.56a7.25,7.25,0,0,0,5.6,0v.56c0,.23-1,.8-2.8.8Zm0-1.6c-1.82,0-2.8-.57-2.8-.8v-.56a7.25,7.25,0,0,0,5.6,0v.56c0,.23-1,.8-2.8.8Zm0-1.6c-1.82,0-2.8-.57-2.8-.8V17a7.25,7.25,0,0,0,5.6,0v.56c0,.23-1,.8-2.8.8Zm0-1.6c-1.82,0-2.8-.57-2.8-.8v-.56a7.25,7.25,0,0,0,5.6,0V16c0,.23-1,.8-2.8.8Zm0-1.6c-1.82,0-2.8-.57-2.8-.8v-.56a7.25,7.25,0,0,0,5.6,0v.56c0,.23-1,.8-2.8.8Zm0-1.6c-1.82,0-2.8-.57-2.8-.8v-.56a7.25,7.25,0,0,0,5.6,0v.56c0,.23-1,.8-2.8.8Zm0-1.6c-1.82,0-2.8-.57-2.8-.8v-.56a7.25,7.25,0,0,0,5.6,0v.56c0,.23-1,.8-2.8.8Z" fill="#fff"/><path id="Path_21836" data-name="Path 21836" d="M19.6,0V.8h3L15,8.4H6.65L.14,14.1l.52.6L7,9.2h8.42L23.2,1.37v3H24V0Z" fill="#fff"/></g></g></g></svg>