<svg xmlns="http://www.w3.org/2000/svg" width="23.86" height="21.44" viewBox="0 0 23.86 21.44"><title>Asset 4</title><g id="Layer_2" data-name="Layer 2"><g id="Layer_1-2" data-name="Layer 1"><g id="Group_2658" data-name="Group 2658"><path id="Path_21786" data-name="Path 21786" d="M11.93,4.66a.47.47,0,1,0,.47.47.47.47,0,0,0-.47-.47Z" fill="#fff"/><path id="Path_21787" data-name="Path 21787" d="M4.2,13.05a.47.47,0,1,0-.47-.47.47.47,0,0,0,.47.47Z" fill="#fff"/><path id="Path_21788" data-name="Path 21788" d="M15.66,0C11.46,0,8,2.89,7.75,6.54c-4,.2-7.75,3.08-7.75,7A6.5,6.5,0,0,0,1.82,18a2.84,2.84,0,0,1-.75,2.67.46.46,0,0,0,0,.66.48.48,0,0,0,.34.14A5.14,5.14,0,0,0,5,20a10.5,10.5,0,0,0,3.24.51c4.2,0,7.64-2.89,7.91-6.54a10.17,10.17,0,0,0,2.79-.5,5.1,5.1,0,0,0,3.56,1.44.47.47,0,0,0,.33-.8A2.85,2.85,0,0,1,22,11.44,6.43,6.43,0,0,0,23.86,7c0-4.05-4.05-7-8.2-7ZM8.2,19.57A9.11,9.11,0,0,1,5,19a.48.48,0,0,0-.52.12A4.16,4.16,0,0,1,2.4,20.38a3.7,3.7,0,0,0,.28-2.77.49.49,0,0,0-.11-.2,5.62,5.62,0,0,1-1.64-3.9c0-3.28,3.33-6.06,7.27-6.06,3.72,0,7,2.59,7,6.06s-3.13,6.06-7,6.06Zm13.09-8.68a.37.37,0,0,0-.12.2,3.76,3.76,0,0,0,.29,2.77,4.22,4.22,0,0,1-2.1-1.24.46.46,0,0,0-.51-.12A9.2,9.2,0,0,1,16.1,13a6.65,6.65,0,0,0-2.52-4.65h6.08a.47.47,0,1,0,0-.93h-7.5a8.73,8.73,0,0,0-3.47-.92C9,3.41,12,.93,15.66.93,19.6.93,22.93,3.71,22.93,7a5.62,5.62,0,0,1-1.64,3.9Z" fill="#fff"/><path id="Path_21789" data-name="Path 21789" d="M11.93,12.12H6.06a.47.47,0,1,0,0,.93h5.87a.47.47,0,1,0,0-.93Z" fill="#fff"/><path id="Path_21790" data-name="Path 21790" d="M11.93,14.91H4.2a.47.47,0,0,0,0,.94h7.73a.47.47,0,0,0,0-.94Z" fill="#fff"/><path id="Path_21791" data-name="Path 21791" d="M19.67,4.66H13.8a.47.47,0,0,0,0,.93h5.88a.47.47,0,0,0,0-.93Z" fill="#fff"/></g></g></g></svg>