<svg xmlns="http://www.w3.org/2000/svg" width="27" height="30.06" viewBox="0 0 27 30.06"><title>Asset 8</title><g id="Layer_2" data-name="Layer 2"><g id="Layer_1-2" data-name="Layer 1"><g id="Group_2666" data-name="Group 2666"><path id="Path_21822" data-name="Path 21822" d="M2.55,16.81a.51.51,0,0,0-.51.51H2v2a.51.51,0,0,0,1,0v-2a.51.51,0,0,0-.51-.51Z" fill="#fff"/><path id="Path_21823" data-name="Path 21823" d="M4.59,17.83a.51.51,0,0,0-.51.51h0v2a.51.51,0,0,0,1,0v-2a.51.51,0,0,0-.51-.51Z" fill="#fff"/><path id="Path_21824" data-name="Path 21824" d="M23.17,20.57a.51.51,0,0,0-.71.13.51.51,0,0,0,.14.71h0a3.06,3.06,0,1,1-4.24.83,3,3,0,0,1,2.53-1.35.51.51,0,0,0,0-1,4.07,4.07,0,1,0,2.28.7Z" fill="#fff"/><path id="Path_21825" data-name="Path 21825" d="M26.76,22.25a6.08,6.08,0,0,0-3.32-3.86V7.13a.52.52,0,0,0-.25-.44L12,.07a.53.53,0,0,0-.52,0L.25,6.69l0,0,0,0a.34.34,0,0,0-.12.12h0A.84.84,0,0,0,0,7a.06.06,0,0,0,0,0,.43.43,0,0,1,0,0V20.38a.51.51,0,0,0,.25.44l11.21,6.62,0,0h0a.43.43,0,0,0,.35,0h0l0,0,3-1.8a6.11,6.11,0,0,0,11.74-3.39ZM11.72,1.1l2.65,1.57L10.44,5a.51.51,0,0,0-.17.7.52.52,0,0,0,.69.18l4.41-2.6L18,4.83l-10.2,6L5.17,9.29,9.43,6.77a.51.51,0,0,0,.19-.7.52.52,0,0,0-.7-.19h0L4.16,8.7,1.52,7.13ZM7.31,11.74v3.4L4.67,13.58v-3.4ZM15,22.37a6.1,6.1,0,0,0-.17,2.21l-2.58,1.53V24.45a.51.51,0,0,0-1,0h0v1.66L1,20.09V8L3.66,9.58v4.29a.48.48,0,0,0,.25.44l3.65,2.16a.51.51,0,0,0,.69-.18A.48.48,0,0,0,8.32,16V12.34l2.89,1.71v8.36a.51.51,0,0,0,1,0V14.05l9.23-5.46a.51.51,0,1,0-.48-.9l0,0-9.22,5.45-2.9-1.71,10.2-6,3.4,2V18A6.09,6.09,0,0,0,15,22.36ZM20.89,29A5.1,5.1,0,1,1,26,23.94,5.09,5.09,0,0,1,20.89,29Z" fill="#fff"/><path id="Path_21826" data-name="Path 21826" d="M22.77,22.56a.51.51,0,0,0-.71,0L20.13,24.5l-.4-.4a.51.51,0,0,0-.72.72h0l.76.76a.51.51,0,0,0,.72,0h0l2.29-2.29a.51.51,0,0,0,0-.72Z" fill="#fff"/></g></g></g></svg>