<svg xmlns="http://www.w3.org/2000/svg" width="24.39" height="18.08" viewBox="0 0 24.39 18.08"><title>Asset 7</title><g id="Layer_2" data-name="Layer 2"><g id="Layer_1-2" data-name="Layer 1"><g id="Group_2659" data-name="Group 2659"><path id="Path_21808" data-name="Path 21808" d="M22,10.79l-3.64-.26-2.41-4-1.2-2V4a1.09,1.09,0,0,0-1.09-1.09,1.34,1.34,0,0,0-.4.07L9.77,4.27,10,3.39a1.62,1.62,0,0,0-.81-1.88L6.51.05A.42.42,0,0,0,6,.2L2,6.59l-.08,0a.42.42,0,0,0-.58.15h0v0L.05,9.06a.41.41,0,0,0,.17.56L15.39,18a.46.46,0,0,0,.2,0h6.27a2.52,2.52,0,0,0,2.53-2.52V13.39A2.62,2.62,0,0,0,22,10.79Zm-4.52-.09-.48.16L13.21,6l1-.73ZM6.46,1,8.83,2.25a.8.8,0,0,1,.39.91L8.87,4.33,6.46,2.88l-.84-.5ZM4,5l.22-.34,1.38,1A2.39,2.39,0,0,1,6.51,8l0,1.21L2.7,7Zm17.9,12.24H15.7L1,9.08l.85-1.6,13.93,8a.39.39,0,0,0,.21.06h7.57a1.68,1.68,0,0,1-1.68,1.68Zm1.68-2.52H16.09l-2.88-1.66,1-1a.42.42,0,0,0-.6-.59l-1.12,1.15-1.6-.93,1.6-1.28a.42.42,0,0,0,0-.59.41.41,0,0,0-.57-.06l-1.86,1.48L8.7,10.47l2.08-1.73a.42.42,0,0,0-.52-.67l0,0L7.92,10l-.65-.38L7.34,8A3.22,3.22,0,0,0,6.07,5L4.64,4l.54-.85L8.9,5.33a.33.33,0,0,0,.16,0h.06a.4.4,0,0,0,.15,0l4.26-1.64a.25.25,0,0,1,.32.15.15.15,0,0,1,0,.09v.46L12.36,5.55a.43.43,0,0,0-.08.59h0l4.2,5.47a.41.41,0,0,0,.46.14l1.19-.39,3.77.27a1.77,1.77,0,0,1,1.64,1.75Z" fill="#fff"/><path id="Path_21809" data-name="Path 21809" d="M2.52,12.2H.42a.42.42,0,0,0,0,.84h2.1a.42.42,0,0,0,.4-.44.41.41,0,0,0-.4-.4Z" fill="#fff"/><path id="Path_21810" data-name="Path 21810" d="M0,15.14a.42.42,0,0,0,.42.42H5.89a.42.42,0,0,0,0-.84H.42a.42.42,0,0,0-.42.42Z" fill="#fff"/><path id="Path_21811" data-name="Path 21811" d="M10.51,17.24H.42a.42.42,0,0,0-.42.42.42.42,0,0,0,.42.42H10.51a.42.42,0,0,0,.42-.42A.42.42,0,0,0,10.51,17.24Z" fill="#fff"/></g></g></g></svg>