<svg xmlns="http://www.w3.org/2000/svg" width="24.21" height="16.4" viewBox="0 0 24.21 16.4"><defs><style>.a{fill:#f8d12e;}.b{fill:#333;}.c{fill:#db2727;}.d{fill:#dbb30f;}.e{fill:#202121;}.f{fill:#c10e0e;}.g{fill:#a00808;}.h{fill:#d89f12;}</style></defs><g transform="translate(0 -80)"><path class="a" d="M0,304v3.2a2.26,2.26,0,0,0,2.343,2.265H21.867A2.26,2.26,0,0,0,24.21,307.2V304Z" transform="translate(0 -213.067)"/><path class="b" d="M21.867,80H2.343A2.26,2.26,0,0,0,0,82.265v3.2H24.21v-3.2A2.26,2.26,0,0,0,21.867,80Z" transform="translate(0 0)"/><rect class="c" width="24" height="6" transform="translate(0 85.4)"/><path class="d" d="M321.921,309.467a2.4,2.4,0,0,0,2.541-2.265V304H315.2Z" transform="translate(-300.252 -213.067)"/><path class="e" d="M67.524,80H48l6.482,5.467H69.867v-3.2A2.26,2.26,0,0,0,67.524,80Z" transform="translate(-45.657 0)"/><path class="f" d="M186.638,197.933h8.786V192H180Z" transform="translate(-171.214 -106.533)"/><path d="M67.524,80H48l18.079,5.467h3.788v-3.2A2.26,2.26,0,0,0,67.524,80Z" transform="translate(-45.657 0)"/><path class="g" d="M418.383,193.093V192H414.4Z" transform="translate(-394.173 -106.533)"/><path class="h" d="M24.21,368.039a2.223,2.223,0,0,1-2.343,2.3H2.343A2.325,2.325,0,0,1,0,368" transform="translate(0 -273.943)"/></g></svg>