<svg xmlns="http://www.w3.org/2000/svg" width="30.485" height="19.327" viewBox="0 0 30.485 19.327">
  <g id="Group_2664" data-name="Group 2664" transform="translate(-3758.704 5244)">
    <path id="Path_21812" data-name="Path 21812" d="M29.386,86.986H10.9a1.1,1.1,0,0,0-1.1,1.1V92.9H1.1A1.1,1.1,0,0,0,0,94v11.21a1.1,1.1,0,0,0,1.1,1.1H19.583a1.1,1.1,0,0,0,1.1-1.1V100.4h8.7a1.1,1.1,0,0,0,1.1-1.1V88.085A1.1,1.1,0,0,0,29.386,86.986ZM19.6,105.213a.021.021,0,0,1-.021.021l-18.5-.021L1.1,93.982,19.6,94Zm9.8-5.917a.021.021,0,0,1-.021.021l-8.7-.01V94a1.1,1.1,0,0,0-1.1-1.1h-8.69l.009-4.839,18.5.021V99.3Z" transform="translate(3758.704 -5330.986)" fill="#fff"/>
  </g>
</svg>
