<svg xmlns="http://www.w3.org/2000/svg" width="24" height="24" viewBox="0 0 24 24">
  <g id="Group_2657" data-name="Group 2657" transform="translate(-4449.627 5576.583)">
    <path id="Path_21774" data-name="Path 21774" d="M24,4.4H22V3.6a1.6,1.6,0,0,0-3.2,0v.8H15.6V3.6a1.6,1.6,0,0,0-3.2,0v.8H9.2V3.6A1.6,1.6,0,0,0,6,3.6v.8H4a2,2,0,0,0-2,2V22.365a2,2,0,0,0,2,2H15.2a.4.4,0,1,0,0-.8H4a1.2,1.2,0,0,1-1.2-1.2V9.986H25.2v6.788a.4.4,0,0,0,.8,0V6.392a2,2,0,0,0-2-2Zm-4.4-.8a.8.8,0,0,1,1.6,0v2.4a.8.8,0,0,1-1.6,0Zm-6.4,0a.8.8,0,0,1,1.6,0v2.4a.8.8,0,0,1-1.6,0Zm-6.4,0a.8.8,0,0,1,1.6,0v2.4a.8.8,0,0,1-1.6,0Zm18.4,5.59H2.8v-2.8A1.2,1.2,0,0,1,4,5.194H6v.8a1.6,1.6,0,0,0,3.2,0v-.8h3.2v.8a1.6,1.6,0,0,0,3.2,0v-.8h3.2v.8a1.6,1.6,0,0,0,3.2,0v-.8h2a1.2,1.2,0,0,1,1.2,1.2Z" transform="translate(4447.627 -5578.583)" fill="#fff"/>
    <path id="Path_21775" data-name="Path 21775" d="M25.278,27.819A.819.819,0,0,0,24.458,27H22.819a.819.819,0,0,0-.819.819v1.229a.819.819,0,0,0,.819.819h1.639a.819.819,0,0,0,.819-.819Zm-2.458,1.229V27.819h1.639v1.229Z" transform="translate(4435.597 -5593.615)" fill="#fff"/>
    <path id="Path_21776" data-name="Path 21776" d="M13.278,27.819A.819.819,0,0,0,12.458,27H10.819a.819.819,0,0,0-.819.819v1.229a.819.819,0,0,0,.819.819h1.639a.819.819,0,0,0,.819-.819Zm-2.458,1.229V27.819h1.639v1.229Z" transform="translate(4442.905 -5593.615)" fill="#fff"/>
    <path id="Path_21777" data-name="Path 21777" d="M48.458,29.868a.819.819,0,0,0,.819-.819V27.819A.819.819,0,0,0,48.458,27H46.819a.819.819,0,0,0-.819.819v1.229a.819.819,0,0,0,.819.819Zm-1.639-2.049h1.639v1.229H46.819Z" transform="translate(4421.072 -5593.615)" fill="#fff"/>
    <path id="Path_21778" data-name="Path 21778" d="M25.278,36.819A.819.819,0,0,0,24.458,36H22.819a.819.819,0,0,0-.819.819v1.229a.819.819,0,0,0,.819.819h1.639a.819.819,0,0,0,.819-.819Zm-2.458,1.229V36.819h1.639v1.229Z" transform="translate(4435.597 -5599.026)" fill="#fff"/>
    <path id="Path_21779" data-name="Path 21779" d="M13.278,36.819A.819.819,0,0,0,12.458,36H10.819a.819.819,0,0,0-.819.819v1.229a.819.819,0,0,0,.819.819h1.639a.819.819,0,0,0,.819-.819Zm-2.458,1.229V36.819h1.639v1.229Z" transform="translate(4442.905 -5599.026)" fill="#fff"/>
    <path id="Path_21780" data-name="Path 21780" d="M24.458,45H22.819a.819.819,0,0,0-.819.819v1.229a.819.819,0,0,0,.819.819h1.639a.819.819,0,0,0,.819-.819V45.819A.819.819,0,0,0,24.458,45Zm-1.639,2.049V45.819h1.639v1.229Z" transform="translate(4435.597 -5604.438)" fill="#fff"/>
    <path id="Path_21781" data-name="Path 21781" d="M34.819,29.868h1.639a.819.819,0,0,0,.819-.819V27.819A.819.819,0,0,0,36.458,27H34.819a.819.819,0,0,0-.819.819v1.229A.819.819,0,0,0,34.819,29.868Zm0-2.049h1.639v1.229H34.819Z" transform="translate(4428.379 -5593.615)" fill="#fff"/>
    <path id="Path_21782" data-name="Path 21782" d="M34,38.049a.819.819,0,0,0,.819.819.41.41,0,0,0,0-.819V36.819h1.639a.41.41,0,1,0,0-.819H34.819a.819.819,0,0,0-.819.819Z" transform="translate(4428.386 -5599.026)" fill="#fff"/>
    <path id="Path_21783" data-name="Path 21783" d="M12.458,45H10.819a.819.819,0,0,0-.819.819v1.229a.819.819,0,0,0,.819.819h1.639a.819.819,0,0,0,.819-.819V45.819A.819.819,0,0,0,12.458,45Zm-1.639,2.049V45.819h1.639v1.229Z" transform="translate(4442.905 -5604.438)" fill="#fff"/>
    <path id="Path_21784" data-name="Path 21784" d="M41.326,36a5.326,5.326,0,1,0,5.326,5.326A5.326,5.326,0,0,0,41.326,36Zm0,9.833a4.507,4.507,0,1,1,4.507-4.507,4.507,4.507,0,0,1-4.507,4.507Z" transform="translate(4426.975 -5599.235)" fill="#fff"/>
    <path id="Path_21785" data-name="Path 21785" d="M47.092,44.635l-3.187,3.187-1.448-1.449a.41.41,0,1,0-.579.579l1.738,1.738a.41.41,0,0,0,.579,0l3.476-3.476a.41.41,0,1,0-.579-.579Z" transform="translate(4423.576 -5604.262)" fill="#fff"/>
  </g>
</svg>
