<svg xmlns="http://www.w3.org/2000/svg" width="27.221" height="25.368" viewBox="0 0 27.221 25.368">
  <g id="Group_2665" data-name="Group 2665" transform="translate(-3988.729 5249)">
    <path id="Path_21813" data-name="Path 21813" d="M34.563,36.564H33.19a1.352,1.352,0,0,0-1.29-.992H30.435V31.989a.378.378,0,0,0-.184-.334l-10.336-5.97a.382.382,0,0,0-.384,0L9.192,31.655A.385.385,0,0,0,9,31.989v11.94a.386.386,0,0,0,.193.334l10.34,5.97a.386.386,0,0,0,.193.052.406.406,0,0,0,.2-.052l5.441-3.138v2.269A1.633,1.633,0,0,0,27.013,51h7.55a1.642,1.642,0,0,0,1.658-1.638V38.227A1.664,1.664,0,0,0,34.563,36.564Zm-2.649-.22a.56.56,0,0,1,.56.56v.037a.56.56,0,0,1-.56.56H29.672a.56.56,0,0,1-.56-.56V36.9a.56.56,0,0,1,.56-.56ZM19.726,26.465l4.3,2.481L14.454,34.47l-4.3-2.481Zm-.367,22.766L9.771,43.707V32.657l9.588,5.525Zm.367-11.718-4.5-2.6,9.568-5.524,4.5,2.6Zm5.64.714V46.2l-5.235,3.027V38.181l9.533-5.525v2.916h.012a1.352,1.352,0,0,0-1.29.992H27.013A1.655,1.655,0,0,0,25.365,38.227ZM35.449,49.364a.87.87,0,0,1-.886.866h-7.55a.861.861,0,0,1-.876-.866V38.227a.883.883,0,0,1,.876-.892H28.4a1.319,1.319,0,0,0,1.275.937H31.9a1.319,1.319,0,0,0,1.275-.937h1.388a.892.892,0,0,1,.886.892Z" transform="translate(3979.729 -5274.634)" fill="#fff"/>
    <path id="Path_21814" data-name="Path 21814" d="M337.383,280.59h.4a.386.386,0,0,0,0-.771h-.015v-1.047h1.064a.371.371,0,0,0,.367.26.387.387,0,0,0,.388-.385v-.26a.391.391,0,0,0-.39-.388h-1.817a.385.385,0,0,0-.383.388V280.2a.383.383,0,0,0,.383.385Z" transform="translate(3669.803 -5513.094)" fill="#fff"/>
    <path id="Path_21815" data-name="Path 21815" d="M337.386,344.59H339.2a.386.386,0,0,0,.386-.386v-1.818A.386.386,0,0,0,339.2,342h-1.818a.386.386,0,0,0-.386.386V344.2A.386.386,0,0,0,337.386,344.59Zm.386-1.818h1.047v1.047h-1.047Z" transform="translate(3669.803 -5573.567)" fill="#fff"/>
    <path id="Path_21816" data-name="Path 21816" d="M337.786,407.818h-.015v-1.047h1.043a.388.388,0,1,0,.775,0V406.4a.4.4,0,0,0-.39-.4h-1.817a.4.4,0,0,0-.383.4v1.817a.372.372,0,0,0,.383.372h.4a.386.386,0,0,0,0-.771Z" transform="translate(3669.803 -5634.041)" fill="#fff"/>
    <path id="Path_21817" data-name="Path 21817" d="M356.486,284.652l-1.13,1.13-.344-.344a.386.386,0,0,0-.546.546l.616.616a.386.386,0,0,0,.545,0l1.4-1.4a.386.386,0,0,0-.546-.546Z" transform="translate(3653.404 -5519.272)" fill="#fff"/>
    <path id="Path_21818" data-name="Path 21818" d="M356.486,413.9l-1.13,1.13-.344-.344a.386.386,0,0,0-.546.546l.616.616a.386.386,0,0,0,.545,0l1.4-1.4a.386.386,0,0,0-.546-.546Z" transform="translate(3653.404 -5641.399)" fill="#fff"/>
    <path id="Path_21819" data-name="Path 21819" d="M416.7,295h-2.423a.386.386,0,1,0,0,.771H416.7a.386.386,0,1,0,0-.771Z" transform="translate(3597.148 -5529.157)" fill="#fff"/>
    <path id="Path_21820" data-name="Path 21820" d="M416.7,359h-2.423a.386.386,0,0,0,0,.771H416.7a.386.386,0,0,0,0-.771Z" transform="translate(3597.148 -5589.631)" fill="#fff"/>
    <path id="Path_21821" data-name="Path 21821" d="M416.7,423h-2.423a.386.386,0,1,0,0,.771H416.7a.386.386,0,1,0,0-.771Z" transform="translate(3597.148 -5650.104)" fill="#fff"/>
  </g>
</svg>
