<svg xmlns="http://www.w3.org/2000/svg" width="24.5" height="20.58" viewBox="0 0 24.5 20.58">
  <g id="Group_2667" data-name="Group 2667" transform="translate(-4426.627 5244)">
    <path id="Path_21827" data-name="Path 21827" d="M24.52,3.45h-4.9V2.47A1.47,1.47,0,0,0,18.15,1H8.35A1.47,1.47,0,0,0,6.88,2.47v.98H1.98A.98.98,0,0,0,1,4.43V18.15a.98.98,0,0,0,.98.98h4.9v.98a1.47,1.47,0,0,0,1.47,1.47h9.8a1.47,1.47,0,0,0,1.47-1.47v-.98h4.9a.98.98,0,0,0,.98-.98V4.43A.98.98,0,0,0,24.52,3.45Zm-4.9,11.76h1.715a.245.245,0,1,1,0,.49H19.62ZM6.88,15.7H5.165a.245.245,0,1,1,0-.49H6.88Zm-4.9,2.45V4.43h4.9V5.9H4.43a.49.49,0,0,0,0,.98H6.88v.98H5.41a.49.49,0,1,0,0,.98H6.88v5.39H5.165a1.225,1.225,0,1,0,0,2.45H6.88v1.47Zm16.66,1.96a.49.49,0,0,1-.49.49H8.35a.49.49,0,0,1-.49-.49V2.47a.49.49,0,0,1,.49-.49h9.8a.49.49,0,0,1,.49.49Zm.98-1.96V16.68h1.715a1.225,1.225,0,1,0,0-2.45H19.62V8.84h1.47a.49.49,0,1,0,0-.98H19.62V6.88h2.45a.49.49,0,1,0,0-.98H19.62V4.43h4.9V18.15Z" transform="translate(4425.627 -5245)" fill="#fff"/>
    <path id="Path_21828" data-name="Path 21828" d="M25.35,8H18.49a.49.49,0,1,0,0,.98h6.86a.49.49,0,1,0,0-.98Z" transform="translate(4416.957 -5248.57)" fill="#fff"/>
    <path id="Path_21829" data-name="Path 21829" d="M24.39,30H20.47a1.47,1.47,0,1,0,0,2.94h3.92a1.47,1.47,0,1,0,0-2.94Zm0,1.96H20.47a.49.49,0,0,1,0-.98h3.92a.49.49,0,1,1,0,.98Z" transform="translate(4416.447 -5259.791)" fill="#fff"/>
    <path id="Path_21830" data-name="Path 21830" d="M25.88,12.49a.49.49,0,0,0-.49-.49h-4.9a.49.49,0,0,0,0,.98h4.9A.49.49,0,0,0,25.88,12.49Z" transform="translate(4415.937 -5250.61)" fill="#fff"/>
    <path id="Path_21831" data-name="Path 21831" d="M25.43,20H22.49a.49.49,0,0,0,0,.98h2.94a.49.49,0,1,0,0-.98Z" transform="translate(4414.917 -5254.69)" fill="#fff"/>
    <path id="Path_21832" data-name="Path 21832" d="M25.43,24H22.49a.49.49,0,0,0,0,.98h2.94a.49.49,0,1,0,0-.98Z" transform="translate(4414.917 -5256.73)" fill="#fff"/>
  </g>
</svg>
