<svg xmlns="http://www.w3.org/2000/svg" width="24" height="24" viewBox="0 0 24 24">
  <g id="Group_2662" data-name="Group 2662" transform="translate(-3988.729 5413)">
    <path id="Path_21794" data-name="Path 21794" d="M23.25,0H2.283a.749.749,0,0,0-.7.477L.052,4.391A.748.748,0,0,0,0,4.664v15.65a.75.75,0,0,0,.75.75H5.624V23.25a.75.75,0,0,0,.75.75h3.07c.529,0,.489-.273,3.366-2.936h4.3a.75.75,0,0,0,.519-.208l6.138-5.867A.753.753,0,0,0,24,14.447V.75A.75.75,0,0,0,23.25,0ZM22.5,14.126l-5.688,5.438h-4.3a.755.755,0,0,0-.519.208L9.144,22.5H7.124V20.314a.75.75,0,0,0-.75-.75H1.5V4.806L2.8,1.5H22.5Z" transform="translate(3988.729 -5413)" fill="#fff"/>
    <path id="Path_21795" data-name="Path 21795" d="M3.685,17.239h5.12v2.1a.751.751,0,0,0,1.265.546l2.8-2.644h3.914a.754.754,0,0,0,.515-.2l3.528-3.327a.751.751,0,0,0,.235-.546V2.707a.75.75,0,0,0-.75-.75H3.685a.75.75,0,0,0-.75.75V16.489a.75.75,0,0,0,.75.75Zm.75-13.782H19.566v9.382l-3.076,2.9H12.576a.754.754,0,0,0-.515.2L10.305,17.6v-1.11a.75.75,0,0,0-.75-.75H4.435Z" transform="translate(3988.729 -5413)" fill="#fff"/>
    <path id="Path_21796" data-name="Path 21796" d="M17.5,11.25V6.75a.75.75,0,0,0-1.5,0v4.5A.75.75,0,0,0,17.5,11.25Z" transform="translate(3988.729 -5413)" fill="#fff"/>
    <path id="Path_21797" data-name="Path 21797" d="M12.532,11.25V6.75a.75.75,0,0,0-1.5,0v4.5A.75.75,0,0,0,12.532,11.25Z" transform="translate(3988.729 -5413)" fill="#fff"/>
  </g>
</svg>
