<svg xmlns="http://www.w3.org/2000/svg" width="32.348" height="32.347" viewBox="0 0 32.348 32.347">
  <g id="Group_2883" data-name="Group 2883" transform="translate(-353 -255)">
    <path id="Path_21751" data-name="Path 21751" d="M0,23.818a8.529,8.529,0,1,0,17.059,0c0-.238-.011-.476-.03-.712q.2.057.4.1a5.024,5.024,0,0,0,4.823-1.053l2.68-2.68c1.641-1.64,1.637-4.518.056-7.342l5.7-4.452a4.294,4.294,0,1,0-6.025-6.027l-4.453,5.7c-2.824-1.581-5.7-1.585-7.342.056L10.19,10.1a4.989,4.989,0,0,0-1.052,4.823c.031.134.066.268.1.4-.236-.02-.474-.031-.712-.031A8.539,8.539,0,0,0,0,23.818Zm26.16-21a2.4,2.4,0,1,1,3.365,3.367l-8.907,6.955A1.738,1.738,0,0,1,19.2,11.73ZM19.03,8.874l-1.781,2.236v.326A3.694,3.694,0,0,0,20.912,15.1h.326l2.236-1.782c1.013,1.954,1.085,3.852.118,4.819a2.627,2.627,0,0,1-1.913.691,8.424,8.424,0,0,1-5.458-2.7,9.286,9.286,0,0,1-2.556-4.315,3.194,3.194,0,0,1,.546-3.056c.967-.967,2.865-.895,4.819.118ZM11.662,11.3a10.561,10.561,0,0,0,3.219,6.163,10.676,10.676,0,0,0,6.163,3.218c-.079.042-.856,1.216-3.189.678a9.285,9.285,0,0,1-4.315-2.556,9.287,9.287,0,0,1-2.556-4.315c-.54-2.339.637-3.11.678-3.188Zm.538,8.844a12.46,12.46,0,0,0,2.776,2.1,6.632,6.632,0,1,1-4.88-4.88,12.457,12.457,0,0,0,2.1,2.775Zm0,0" transform="translate(353 255)" fill="#fff"/>
    <path id="Path_1993" data-name="Path 1993" d="M5.176,8.932,3.859,7.615,3.41,8.06,5.176,9.826,8.967,6.035,8.521,5.59Z" transform="translate(354.9 271.583)" fill="#fff" stroke="#fff" stroke-width="1"/>
  </g>
</svg>
