<svg xmlns="http://www.w3.org/2000/svg" width="24.388" height="18.081" viewBox="0 0 24.388 18.081">
  <g id="Group_2659" data-name="Group 2659" transform="translate(-4676.5 5410.495)">
    <path id="Path_21808" data-name="Path 21808" d="M21.973,10.79l-3.644-.26L15.921,6.518l-1.2-2.009V3.953a1.093,1.093,0,0,0-1.488-1.02L9.767,4.268l.262-.878a1.632,1.632,0,0,0-.805-1.88L6.507.05A.421.421,0,0,0,5.947.2L1.962,6.586l-.084-.049a.42.42,0,0,0-.574.155L1.3,6.705.05,9.054a.421.421,0,0,0,.168.565l15.173,8.41a.421.421,0,0,0,.2.052h6.272a2.525,2.525,0,0,0,2.523-2.523V13.384a2.61,2.61,0,0,0-2.416-2.594Zm-4.522-.09-.48.16L13.208,5.968l.967-.726ZM6.462.981,8.826,2.25a.792.792,0,0,1,.394.908L8.873,4.328,6.459,2.881l-.836-.5ZM3.972,4.994l.215-.336L5.571,5.687a2.409,2.409,0,0,1,.938,2.271L6.456,9.173,2.7,7.007ZM21.866,17.241H15.7L.985,9.083l.85-1.6L15.769,15.5a.419.419,0,0,0,.21.056h7.569a1.682,1.682,0,0,1-1.682,1.682Zm1.682-2.523H16.091l-2.884-1.66.97-.989a.42.42,0,0,0-.6-.589l-1.122,1.144-1.6-.921,1.6-1.282a.421.421,0,0,0-.526-.657l-1.86,1.488L8.7,10.465l2.077-1.731a.421.421,0,1,0-.538-.647l-2.316,1.93-.65-.374.068-1.614A3.229,3.229,0,0,0,6.073,5.01L4.64,3.945l.541-.85L8.9,5.328a.411.411,0,0,0,.163.053c.01,0,.019,0,.029,0l.024,0a.418.418,0,0,0,.152-.028l4.259-1.643a.253.253,0,0,1,.344.238v.463L12.361,5.552a.42.42,0,0,0-.084.589l0,0,4.2,5.467a.418.418,0,0,0,.466.143l1.182-.394,3.779.27a1.766,1.766,0,0,1,1.636,1.754Zm0,0" transform="translate(4676.5 -5410.495)" fill="#fff"/>
    <path id="Path_21809" data-name="Path 21809" d="M2.523,256H.42a.421.421,0,0,0,0,.841h2.1a.421.421,0,0,0,0-.841Zm0,0" transform="translate(4676.5 -5654.3)" fill="#fff"/>
    <path id="Path_21810" data-name="Path 21810" d="M0,309.385a.421.421,0,0,0,.421.421H5.887a.421.421,0,0,0,0-.841H.421a.421.421,0,0,0-.421.421Zm0,0" transform="translate(4676.5 -5704.742)" fill="#fff"/>
    <path id="Path_21811" data-name="Path 21811" d="M10.512,361.934H.42a.42.42,0,1,0,0,.841H10.512a.42.42,0,0,0,0-.841Zm0,0" transform="translate(4676.5 -5755.188)" fill="#fff"/>
  </g>
</svg>
