<svg xmlns="http://www.w3.org/2000/svg" width="27" height="30.057" viewBox="0 0 27 30.057">
  <g id="Group_2666" data-name="Group 2666" transform="translate(-4226.685 5253)">
    <path id="Path_21822" data-name="Path 21822" d="M56.513,264a.509.509,0,0,0-.509.509v2.038a.509.509,0,0,0,1.019,0v-2.038A.509.509,0,0,0,56.513,264Z" transform="translate(4172.719 -5500.191)" fill="#fff"/>
    <path id="Path_21823" data-name="Path 21823" d="M88.513,280a.509.509,0,0,0-.509.509v2.038a.509.509,0,0,0,1.019,0v-2.038A.509.509,0,0,0,88.513,280Z" transform="translate(4142.756 -5515.172)" fill="#fff"/>
    <path id="Path_21824" data-name="Path 21824" d="M294.37,312.7a.509.509,0,0,0-.571.844,3.056,3.056,0,1,1-1.709-.521.509.509,0,0,0,0-1.019,4.075,4.075,0,1,0,2.279.7Z" transform="translate(3955.48 -5545.135)" fill="#fff"/>
    <path id="Path_21825" data-name="Path 21825" d="M50.763,22.251a6.11,6.11,0,0,0-3.326-3.861V7.132a.509.509,0,0,0-.25-.439L35.98.071a.509.509,0,0,0-.519,0L24.254,6.693c-.011.006-.018.015-.029.022l-.03.023a.5.5,0,0,0-.113.124s-.006.006-.008.009v0a.509.509,0,0,0-.058.167.45.45,0,0,1-.006.045A.446.446,0,0,0,24,7.132V20.377a.509.509,0,0,0,.25.439l11.207,6.622.041.017.043.018a.454.454,0,0,0,.35,0l.043-.018c.013-.006.028-.01.041-.017l3.042-1.8a6.11,6.11,0,0,0,11.741-3.389ZM35.72,1.1l2.649,1.565L34.442,4.987a.51.51,0,0,0,.519.878l4.411-2.6L42.02,4.826,31.815,10.855,29.166,9.289l4.267-2.522a.51.51,0,1,0-.519-.878L28.164,8.7,25.515,7.132ZM31.305,11.738v3.4l-2.632-1.555v-3.4Zm7.673,10.63a6.206,6.206,0,0,0-.168,2.213L36.23,26.107V24.452a.509.509,0,1,0-1.019,0v1.655l-10.188-6.02V8.025L27.655,9.58v4.294a.509.509,0,0,0,.25.439l3.65,2.157a.51.51,0,0,0,.769-.439V12.339l2.887,1.706v8.369a.509.509,0,1,0,1.019,0V14.045L45.462,8.59a.51.51,0,1,0-.519-.877L35.72,13.163l-2.9-1.716L43.022,5.416l3.4,2.007V18.033A6.088,6.088,0,0,0,38.978,22.368Zm5.912,6.669a5.094,5.094,0,1,1,5.094-5.094A5.094,5.094,0,0,1,44.89,29.037Z" transform="translate(4202.681 -5253)" fill="#fff"/>
    <path id="Path_21826" data-name="Path 21826" d="M324.009,352.243a.509.509,0,0,0-.708,0l-1.932,1.932-.4-.4a.509.509,0,0,0-.72.72l.764.764a.509.509,0,0,0,.72,0l2.292-2.292A.509.509,0,0,0,324.009,352.243Z" transform="translate(3925.438 -5582.679)" fill="#fff"/>
  </g>
</svg>
