<svg xmlns="http://www.w3.org/2000/svg" width="24" height="24" viewBox="0 0 24 24">
  <g id="Group_2660" data-name="Group 2660" transform="translate(-4429.627 5413)">
    <path id="Path_21798" data-name="Path 21798" d="M60.508,45.016a.508.508,0,1,0-.359-.149A.512.512,0,0,0,60.508,45.016Zm0,0" transform="translate(4376.674 -5454.766)" fill="#fff"/>
    <path id="Path_21799" data-name="Path 21799" d="M114.18,45.016a.508.508,0,1,0-.359-.149A.512.512,0,0,0,114.18,45.016Zm0,0" transform="translate(4325.266 -5454.766)" fill="#fff"/>
    <path id="Path_21800" data-name="Path 21800" d="M202.82,45.016H207.8c.177,0,.32-.227.32-.508S207.974,44,207.8,44H202.82c-.177,0-.32.227-.32.508S202.643,45.016,202.82,45.016Zm0,0" transform="translate(4240.207 -5454.766)" fill="#fff"/>
    <path id="Path_21801" data-name="Path 21801" d="M321.549,405h-3.267c-.156,0-.282.227-.282.508s.126.508.282.508h3.267c.156,0,.282-.227.282-.508S321.7,405,321.549,405Zm0,0" transform="translate(4129.775 -5799.08)" fill="#fff"/>
    <path id="Path_21802" data-name="Path 21802" d="M340.992,445h-1.886c-.14,0-.254.227-.254.508s.114.508.254.508h1.886c.14,0,.254-.227.254-.508S341.132,445,340.992,445Zm0,0" transform="translate(4110.36 -5837.402)" fill="#fff"/>
    <path id="Path_21803" data-name="Path 21803" d="M312,225a4,4,0,0,0-2.682,6.965.515.515,0,0,0,.073.063,3.988,3.988,0,0,0,5.218,0,.5.5,0,0,0,.074-.064A4,4,0,0,0,312,225Zm-1.7,6.437a1.883,1.883,0,0,1,3.405,0,2.964,2.964,0,0,1-3.405,0Zm1.122-2.685v-.273a.581.581,0,1,1,1.162,0v.273a.581.581,0,0,1-1.162,0Zm3.034,1.927a2.923,2.923,0,0,0-1.126-1.024,1.6,1.6,0,0,0,.279-.9v-.273a1.606,1.606,0,1,0-3.213,0v.273a1.6,1.6,0,0,0,.279.9,2.919,2.919,0,0,0-1.125,1.024,2.974,2.974,0,1,1,4.906,0Zm0,0" transform="translate(4135.727 -5627.838)" fill="#fff"/>
    <path id="Path_21804" data-name="Path 21804" d="M23.063,8.344H20.25V1.406A1.408,1.408,0,0,0,18.844,0H1.406A1.408,1.408,0,0,0,0,1.406V16.453a1.408,1.408,0,0,0,1.406,1.406h5.8V20.3a.469.469,0,0,0,.469.469H9.732A.469.469,0,0,0,10.2,20.3V17.859h1.987v5.2a.939.939,0,0,0,.937.938h9.938A.939.939,0,0,0,24,23.063V9.281a.939.939,0,0,0-.937-.938ZM1.406.938H18.844a.469.469,0,0,1,.469.469V4.125H.938V1.406A.469.469,0,0,1,1.406.938ZM9.263,19.828H8.144V14.564a.469.469,0,0,0-.469-.469H7.614l1.043-1.807L9.7,14.1a.469.469,0,0,0-.438.468ZM12.187,9.281v7.641H10.2V15.032h.312a.469.469,0,0,0,.406-.7L9.064,11.116a.469.469,0,0,0-.812,0L6.4,14.329a.469.469,0,0,0,.406.7h.4v1.889h-5.8a.469.469,0,0,1-.469-.469V5.063H19.313V8.344H13.125a.939.939,0,0,0-.937.938ZM23.062,23.063H13.125V9.281h9.938V23.063Zm0,0" transform="translate(4429.627 -5413)" fill="#fff"/>
    <path id="Path_21805" data-name="Path 21805" d="M66.6,150H60.508a.508.508,0,1,0,0,1.016H66.6a.508.508,0,1,0,0-1.016Zm0,0" transform="translate(4372.674 -5555.993)" fill="#fff"/>
    <path id="Path_21806" data-name="Path 21806" d="M220.508,150a.508.508,0,1,0,.359.149A.512.512,0,0,0,220.508,150Zm0,0" transform="translate(4220.627 -5555.993)" fill="#fff"/>
    <path id="Path_21807" data-name="Path 21807" d="M64.926,198H60.508a.508.508,0,1,0,0,1.016h4.418a.508.508,0,0,0,0-1.016Zm0,0" transform="translate(4372.674 -5601.75)" fill="#fff"/>
  </g>
</svg>
