<svg xmlns="http://www.w3.org/2000/svg" width="30.017" height="19.367" viewBox="0 0 30.017 19.367">
  <g id="Group_2661" data-name="Group 2661" transform="translate(-4220.602 5411)">
    <path id="gym" d="M36.08,103.741V99.384a1.935,1.935,0,0,0-2.917-1.669,1.937,1.937,0,0,0-3.861.216v5.81H16.715v-5.81a1.937,1.937,0,0,0-3.861-.216,1.935,1.935,0,0,0-2.917,1.669v4.357a1.937,1.937,0,0,0,0,3.873v4.357a1.935,1.935,0,0,0,2.917,1.669,1.937,1.937,0,0,0,3.861-.216v-5.81H29.3v5.81a1.937,1.937,0,0,0,3.861.216,1.935,1.935,0,0,0,2.917-1.669v-4.357a1.937,1.937,0,0,0,0-3.873Zm-26.144,2.9a.968.968,0,0,1,0-1.937Zm1.937,6.294a.969.969,0,0,1-.968-.968V99.384a.968.968,0,1,1,1.937,0v12.588A.969.969,0,0,1,11.873,112.94Zm3.873.484a.968.968,0,1,1-1.937,0V97.931a.968.968,0,0,1,1.937,0Zm.968-6.778v-1.937H29.3v1.937Zm15.493,6.778a.968.968,0,1,1-1.937,0V97.931a.968.968,0,0,1,1.937,0Zm2.9-1.452a.968.968,0,1,1-1.937,0V99.384a.968.968,0,1,1,1.937,0Zm.968-5.326v-1.937a.968.968,0,0,1,0,1.937Z" transform="translate(4212.602 -5506.994)" fill="#fff"/>
  </g>
</svg>
