<svg xmlns="http://www.w3.org/2000/svg" width="23.861" height="21.438" viewBox="0 0 23.861 21.438">
  <g id="Group_2658" data-name="Group 2658" transform="translate(-4655.5 5576.438)">
    <path id="Path_21786" data-name="Path 21786" d="M246.466,100a.466.466,0,1,0,.466.466A.466.466,0,0,0,246.466,100Zm0,0" transform="translate(4420.964 -5671.777)" fill="#fff"/>
    <path id="Path_21787" data-name="Path 21787" d="M80.466,260.932a.466.466,0,1,0-.466-.466A.466.466,0,0,0,80.466,260.932Zm0,0" transform="translate(4579.229 -5824.32)" fill="#fff"/>
    <path id="Path_21788" data-name="Path 21788" d="M15.659,0c-4.2,0-7.639,2.893-7.906,6.536C3.758,6.736,0,9.618,0,13.515a6.512,6.512,0,0,0,1.818,4.457,2.834,2.834,0,0,1-.749,2.67.466.466,0,0,0,.33.8A5.141,5.141,0,0,0,4.96,20a10.62,10.62,0,0,0,3.242.508c4.2,0,7.638-2.892,7.905-6.535a10.48,10.48,0,0,0,2.794-.5,5.141,5.141,0,0,0,3.562,1.44.466.466,0,0,0,.33-.8,2.834,2.834,0,0,1-.749-2.67A6.512,6.512,0,0,0,23.861,6.99c0-4.049-4.047-6.991-8.2-6.991ZM8.2,19.573a9.421,9.421,0,0,1-3.193-.55.466.466,0,0,0-.516.118A4.205,4.205,0,0,1,2.4,20.383a3.769,3.769,0,0,0,.284-2.774.465.465,0,0,0-.114-.2,5.6,5.6,0,0,1-1.64-3.9c0-3.284,3.329-6.058,7.27-6.058,3.721,0,6.991,2.588,6.991,6.058,0,3.341-3.136,6.058-6.991,6.058Zm13.087-8.686a.467.467,0,0,0-.114.2,3.769,3.769,0,0,0,.284,2.774,4.2,4.2,0,0,1-2.092-1.241.466.466,0,0,0-.516-.118,9.181,9.181,0,0,1-2.746.538,6.671,6.671,0,0,0-2.518-4.649h6.079a.466.466,0,1,0,0-.932H12.156a8.692,8.692,0,0,0-3.468-.918C8.956,3.408,11.98.932,15.659.932c3.941,0,7.27,2.774,7.27,6.058a5.6,5.6,0,0,1-1.64,3.9Zm0,0" transform="translate(4655.5 -5576.437)" fill="#fff"/>
    <path id="Path_21789" data-name="Path 21789" d="M126.338,260h-5.872a.466.466,0,0,0,0,.932h5.872a.466.466,0,1,0,0-.932Zm0,0" transform="translate(4541.092 -5824.32)" fill="#fff"/>
    <path id="Path_21790" data-name="Path 21790" d="M88.2,320H80.466a.466.466,0,1,0,0,.932H88.2a.466.466,0,1,0,0-.932Zm0,0" transform="translate(4579.229 -5881.524)" fill="#fff"/>
    <path id="Path_21791" data-name="Path 21791" d="M292.338,100h-5.872a.466.466,0,1,0,0,.932h5.872a.466.466,0,1,0,0-.932Zm0,0" transform="translate(4382.829 -5671.777)" fill="#fff"/>
  </g>
</svg>
