<svg xmlns="http://www.w3.org/2000/svg" width="24" height="24" viewBox="0 0 24 24">
  <g id="Group_2655" data-name="Group 2655" transform="translate(-3992.729 5579)">
    <path id="Path_21762" data-name="Path 21762" d="M22.993,18.178a5,5,0,0,0-3.909-4.026l-4.3-.929h-.077V10.785A4.658,4.658,0,0,0,16.647,7.03V4.707a4.644,4.644,0,1,0-9.288,0V7.03a4.6,4.6,0,0,0,1.935,3.755v2.439H9.216l-4.3.89a5,5,0,0,0-3.909,4.026L.006,23.6a.425.425,0,0,0,.31.465h23.3A.366.366,0,0,0,24,23.675V23.6ZM12,.836a3.855,3.855,0,0,1,3.793,3.1H8.21A3.855,3.855,0,0,1,12,.836Zm3.715,3.871L14.557,5.868H9.448L8.287,4.707ZM8.133,7.03V5.636l.89.89a.351.351,0,0,0,.271.116h5.418a.351.351,0,0,0,.271-.116l.89-.89V7.03a3.87,3.87,0,1,1-7.74,0Zm5.805,4.219v2.594l-.271.271a2.389,2.389,0,0,1-1.625.7h-.077a2.166,2.166,0,0,1-1.625-.7l-.271-.271V11.249a4.61,4.61,0,0,0,3.87,0ZM8.52,14.191l.658-.155.581.619a3.068,3.068,0,0,0,2.206.89h.077a3.134,3.134,0,0,0,2.206-.89l.619-.619.658.155V15.43l-2.051,2.71a1.908,1.908,0,0,0-2.709-.194l-.194.194L8.52,15.43V14.191ZM12,20.578a1.161,1.161,0,1,1,1.161-1.161v2.323H12.39v-.774A.366.366,0,0,0,12,20.578Zm-6.192,2.71H.857l.155-.774h4.8Zm11.61.039H6.585V18.256H5.811v3.484H1.128l.619-3.445a4.255,4.255,0,0,1,3.328-3.406l2.67-.581v1.239a.55.55,0,0,0,.077.232l2.322,3.1a2.285,2.285,0,0,0-.077.542,1.947,1.947,0,0,0,1.548,1.9v.813a.366.366,0,0,0,.387.387h1.548a.366.366,0,0,0,.387-.387v-2.71a2.285,2.285,0,0,0-.077-.542l2.322-3.1a.55.55,0,0,0,.077-.232v-1.2l2.67.581a4.255,4.255,0,0,1,3.328,3.406l.619,3.445H18.195V18.294h-.774Zm.774-.039v-.774h4.8l.155.774Z" transform="translate(3992.729 -5579.062)" fill="#fff"/>
    <rect id="Rectangle_236" data-name="Rectangle 236" width="0.787" height="0.787" transform="translate(4004.339 -5560.042)" fill="#fff"/>
  </g>
</svg>
