<svg xmlns="http://www.w3.org/2000/svg" width="24.076" height="18.236" viewBox="0 0 24.076 18.236">
  <g id="Group_2663" data-name="Group 2663" transform="translate(-3768.704 5409)">
    <path id="Path_21792" data-name="Path 21792" d="M197.711,109.555l-5.319-2.91a.977.977,0,0,0-1.446.857v5.771a.975.975,0,0,0,1.44.86l5.319-2.86a.977.977,0,0,0,.006-1.718Zm-5.354,2.992v-4.313l3.975,2.175Zm0,0" transform="translate(3586.737 -5510.514)" fill="#fff"/>
    <path id="Path_21793" data-name="Path 21793" d="M23.9,4.3V4.293A5.506,5.506,0,0,0,22.836,1.5,3.918,3.918,0,0,0,20.241.282l-.12-.014-.042,0C16.9.032,12.09,0,12.041,0h-.008c-.048,0-4.855.032-8.067.263l-.042,0L3.811.281a3.819,3.819,0,0,0-2.58,1.254A5.77,5.77,0,0,0,.179,4.279l0,.025C.169,4.385,0,6.3,0,8.231v1.8c0,1.927.17,3.847.177,3.928v.012a5.452,5.452,0,0,0,1.057,2.76,4,4,0,0,0,2.682,1.2c.1.011.182.021.24.031l.056.008c1.838.175,7.6.261,7.844.265h.015c.048,0,4.855-.032,8.038-.263l.042,0,.135-.015a3.731,3.731,0,0,0,2.557-1.224A5.77,5.77,0,0,0,23.9,13.985l0-.025c.007-.081.177-2,.177-3.928v-1.8c0-1.927-.17-3.847-.177-3.928Zm-1.234,5.729c0,1.784-.156,3.621-.17,3.789a4.479,4.479,0,0,1-.692,1.954,2.32,2.32,0,0,1-1.665.773l-.15.017c-3.079.223-7.7.257-7.917.258-.239,0-5.917-.09-7.7-.256-.091-.015-.19-.026-.294-.038a2.638,2.638,0,0,1-1.8-.754l-.013-.014a4.064,4.064,0,0,1-.679-1.935c-.011-.127-.171-1.986-.171-3.795v-1.8c0-1.782.155-3.617.17-3.789a4.388,4.388,0,0,1,.692-1.955,2.434,2.434,0,0,1,1.7-.8l.115-.014c3.123-.224,7.782-.257,7.949-.258s4.824.035,7.92.258l.124.015a2.526,2.526,0,0,1,1.728.783l.006.006a4.13,4.13,0,0,1,.679,1.963c.011.12.171,1.983.171,3.8Zm0,0" transform="translate(3768.705 -5409)" fill="#fff"/>
  </g>
</svg>
