<svg xmlns="http://www.w3.org/2000/svg" width="24" height="24" viewBox="0 0 24 24">
  <g id="Group_2668" data-name="Group 2668" transform="translate(-4667.5 5249)">
    <path id="Path_21833" data-name="Path 21833" d="M3.6,320c-1.789,0-3.6.55-3.6,1.6v4.8c0,1.05,1.811,1.6,3.6,1.6s3.6-.55,3.6-1.6v-4.8C7.2,320.55,5.389,320,3.6,320Zm0,.8c1.819,0,2.8.568,2.8.8s-.981.8-2.8.8-2.8-.568-2.8-.8S1.781,320.8,3.6,320.8Zm0,6.4c-1.819,0-2.8-.568-2.8-.8v-.56a6.345,6.345,0,0,0,2.8.56,6.345,6.345,0,0,0,2.8-.56v.56C6.4,326.632,5.419,327.2,3.6,327.2Zm0-1.6c-1.819,0-2.8-.568-2.8-.8v-.56a6.344,6.344,0,0,0,2.8.56,6.344,6.344,0,0,0,2.8-.56v.56C6.4,325.032,5.419,325.6,3.6,325.6Zm0-1.6c-1.819,0-2.8-.568-2.8-.8v-.56a6.344,6.344,0,0,0,2.8.56,6.344,6.344,0,0,0,2.8-.56v.56C6.4,323.432,5.419,324,3.6,324Zm0,0" transform="translate(4667.5 -5553)" fill="#fff"/>
    <path id="Path_21834" data-name="Path 21834" d="M171.6,256c-1.789,0-3.6.55-3.6,1.6v8c0,1.05,1.811,1.6,3.6,1.6s3.6-.55,3.6-1.6v-8C175.2,256.55,173.389,256,171.6,256Zm0,.8c1.819,0,2.8.568,2.8.8s-.981.8-2.8.8-2.8-.568-2.8-.8S169.781,256.8,171.6,256.8Zm0,9.6c-1.819,0-2.8-.568-2.8-.8v-.56a7.281,7.281,0,0,0,5.6,0v.56C174.4,265.832,173.419,266.4,171.6,266.4Zm0-1.6c-1.819,0-2.8-.568-2.8-.8v-.56a7.28,7.28,0,0,0,5.6,0V264C174.4,264.232,173.419,264.8,171.6,264.8Zm0-1.6c-1.819,0-2.8-.568-2.8-.8v-.56a7.28,7.28,0,0,0,5.6,0v.56C174.4,262.632,173.419,263.2,171.6,263.2Zm0-1.6c-1.819,0-2.8-.568-2.8-.8v-.56a7.28,7.28,0,0,0,5.6,0v.56C174.4,261.032,173.419,261.6,171.6,261.6Zm0-1.6c-1.819,0-2.8-.568-2.8-.8v-.56a7.281,7.281,0,0,0,5.6,0v.56C174.4,259.432,173.419,260,171.6,260Zm0,0" transform="translate(4507.9 -5492.2)" fill="#fff"/>
    <path id="Path_21835" data-name="Path 21835" d="M339.6,160c-1.789,0-3.6.55-3.6,1.6v12.8c0,1.05,1.811,1.6,3.6,1.6s3.6-.55,3.6-1.6V161.6C343.2,160.55,341.389,160,339.6,160Zm0,.8c1.819,0,2.8.568,2.8.8s-.981.8-2.8.8-2.8-.568-2.8-.8S337.781,160.8,339.6,160.8Zm0,14.4c-1.819,0-2.8-.568-2.8-.8v-.56a7.28,7.28,0,0,0,5.6,0v.56C342.4,174.632,341.419,175.2,339.6,175.2Zm0-1.6c-1.819,0-2.8-.568-2.8-.8v-.56a7.281,7.281,0,0,0,5.6,0v.56C342.4,173.032,341.419,173.6,339.6,173.6Zm0-1.6c-1.819,0-2.8-.568-2.8-.8v-.56a7.28,7.28,0,0,0,5.6,0v.56C342.4,171.432,341.419,172,339.6,172Zm0-1.6c-1.819,0-2.8-.568-2.8-.8v-.56a7.281,7.281,0,0,0,5.6,0v.56C342.4,169.832,341.419,170.4,339.6,170.4Zm0-1.6c-1.819,0-2.8-.568-2.8-.8v-.56a7.281,7.281,0,0,0,5.6,0V168C342.4,168.232,341.419,168.8,339.6,168.8Zm0-1.6c-1.819,0-2.8-.568-2.8-.8v-.56a7.281,7.281,0,0,0,5.6,0v.56C342.4,166.632,341.419,167.2,339.6,167.2Zm0-1.6c-1.819,0-2.8-.568-2.8-.8v-.56a7.281,7.281,0,0,0,5.6,0v.56C342.4,165.032,341.419,165.6,339.6,165.6Zm0-1.6c-1.819,0-2.8-.568-2.8-.8v-.56a7.28,7.28,0,0,0,5.6,0v.56C342.4,163.432,341.419,164,339.6,164Zm0,0" transform="translate(4348.3 -5401)" fill="#fff"/>
    <path id="Path_21836" data-name="Path 21836" d="M22.19,0V.8h3.034l-7.6,7.6H9.24L2.726,14.1l.527.6L9.541,9.2h8.415L25.79,1.366V4.4h.8V0Zm0,0" transform="translate(4664.91 -5249)" fill="#fff"/>
  </g>
</svg>
