<svg xmlns="http://www.w3.org/2000/svg" width="25.11" height="17.007" viewBox="0 0 25.11 17.007"><defs><style>.a{fill:#359846;}.b{fill:#ea8634;}.c{fill:#fcfbf0;}.d{fill:#7d7dbc;}</style></defs><g transform="translate(0 -80)"><path class="a" d="M0,304v3.32a2.344,2.344,0,0,0,2.43,2.349H22.676a2.344,2.344,0,0,0,2.43-2.349V304Z" transform="translate(0 -212.662)"/><path class="b" d="M22.676,80H2.43A2.344,2.344,0,0,0,0,82.349v3.32H25.105v-3.32A2.344,2.344,0,0,0,22.676,80Z"/><rect class="c" width="25.11" height="6" transform="translate(0 86.007)"/><path class="d" d="M200.151,197.6a2.551,2.551,0,1,0,2.551,2.551A2.54,2.54,0,0,0,200.151,197.6Zm2.106,2.834c0,.04.04.121.081.121-.04.121-.04.243-.081.364-.04-.04-.121,0-.162.04s0,.121.04.162c-.04.121-.121.2-.162.324a.1.1,0,0,0-.162.04.123.123,0,0,0,0,.162l-.121.121-.891-1.012-.364-.283.04-.04.364.283,1.174.607-1.053-.81-.4-.162c0-.04,0-.04.04-.081l.4.162,1.3.283-1.255-.4-.445-.081v-.081l.445.04,1.336-.081-1.336-.081-.445.04v-.081l.445-.081,1.255-.4-1.3.283-.4.162c0-.04,0-.04-.04-.081l.4-.162,1.134-.729-1.174.607-.364.283-.04-.04.364-.283.891-1.012.121.121a.123.123,0,0,0,0,.162.243.243,0,0,0,.162.04.814.814,0,0,1,.162.324c-.04.04-.081.081-.04.162.04.04.081.081.162.04a1.182,1.182,0,0,1,.081.364c-.04,0-.081.081-.081.121s.081.121.121.081v.324C202.3,200.313,202.257,200.353,202.257,200.434Zm-3.523-1.984a.123.123,0,0,0,.162,0,.244.244,0,0,0,.04-.162.814.814,0,0,1,.324-.162c.04.04.081.081.162.04.04-.04.081-.081.04-.162a1.182,1.182,0,0,1,.364-.081c0,.04.081.081.121.081s.121-.081.081-.121h.324c0,.04.04.121.081.121s.121-.04.121-.081c.121.04.243.04.364.081-.04.04,0,.121.04.162s.121,0,.162-.04c.121.04.2.121.324.162a.1.1,0,0,0,.04.162.123.123,0,0,0,.162,0l.121.121-1.012.891-.283.364-.04-.04.283-.364.607-1.174-.81,1.093-.162.4c-.04,0-.04,0-.081-.04l.162-.4.283-1.3-.4,1.255-.081.445h-.081l.04-.445-.04-1.336-.081,1.336.04.445h-.081l-.081-.445-.4-1.255.283,1.3.162.4c-.04,0-.04,0-.081.04l-.162-.4-.729-1.134.607,1.174.283.364-.04.04-.283-.364-1.012-.891C198.612,198.531,198.653,198.491,198.734,198.45Zm-.162,3.28-.121-.121a.123.123,0,0,0,0-.162.243.243,0,0,0-.162-.04.814.814,0,0,1-.162-.324c.04-.04.081-.081.04-.162-.04-.04-.081-.081-.162-.04a1.182,1.182,0,0,1-.081-.364c.04,0,.081-.081.081-.121s-.081-.121-.121-.081v-.324c.04,0,.121-.04.121-.081s-.04-.121-.081-.121c.04-.121.04-.243.081-.364.04.04.121,0,.162-.04s0-.121-.04-.162c.04-.121.121-.2.162-.324a.1.1,0,0,0,.162-.04c.04-.081.04-.121,0-.162l.121-.121.891,1.012.364.283-.04.04-.364-.283-1.174-.607,1.134.729.4.162c0,.04,0,.04-.04.081l-.4-.162-1.3-.283,1.255.4.445.081v.081l-.445-.04-1.377.081,1.336.081.445-.04v.081l-.445.081-1.255.4,1.3-.283.4-.162c0,.04,0,.04.04.081l-.4.162-1.134.729,1.174-.607.364-.283.04.04-.364.283Zm1.417.648c0-.04-.04-.121-.081-.121s-.121.04-.121.081c-.121-.04-.243-.04-.364-.081.04-.04,0-.121-.04-.162s-.121,0-.162.04c-.121-.04-.2-.121-.324-.162a.1.1,0,0,0-.04-.162.123.123,0,0,0-.162,0l-.121-.121,1.012-.891.283-.364.04.04-.283.364-.607,1.174.729-1.134.162-.4c.04,0,.04,0,.081.04l-.162.4-.283,1.3.4-1.255.081-.445h.081l-.04.445.081,1.336.081-1.336-.04-.445h.081l.081.445.4,1.255-.283-1.3-.162-.4c.04,0,.04,0,.081-.04l.162.4.729,1.134-.607-1.174-.283-.364.04-.04.283.364,1.012.891-.121.121a.123.123,0,0,0-.162,0,.243.243,0,0,0-.04.162.814.814,0,0,1-.324.162c-.04-.04-.081-.081-.162-.04s-.081.081-.04.162a1.182,1.182,0,0,1-.364.081c0-.04-.081-.081-.121-.081s-.121.081-.081.121h-.324Z" transform="translate(-187.598 -111.648)"/></g></svg>