<svg xmlns="http://www.w3.org/2000/svg" width="310.991" height="175.039" viewBox="0 0 310.991 175.039"><defs><style>.a{fill:#fff;}.b{fill:#c8397a;}.c{fill:#003359;}</style></defs><g transform="translate(95.546 78.338)"><path class="a" d="M224.688,232.918H223.6V219.1h1.088Z" transform="translate(-210.652 -190.811)"/><path class="a" d="M236.9,232.944c-4.08,0-6.8-2.829-6.8-7.072,0-3.536,2.122-7.072,6.8-7.072a6.84,6.84,0,0,1,4.57,1.36l.218.163-.707.762-.163-.163a5.836,5.836,0,0,0-3.862-1.142c-3.427,0-5.658,2.339-5.658,6.039s2.23,6.039,5.658,6.039a6.152,6.152,0,0,0,3.754-1.142v-4.407h-3.645v-1.034H241.8v6.039l-.109.054A7.357,7.357,0,0,1,236.9,232.944Z" transform="translate(-213.616 -190.675)"/><path class="a" d="M266.3,232.918h-1.088V226.39h-7.725v6.528H256.4V219.1h1.088v6.2h7.725v-6.2H266.3Z" transform="translate(-225.609 -190.811)"/><path class="a" d="M283.559,232.9a7.857,7.857,0,0,1-4.842-1.36l-.218-.163.653-.87.218.163a6.822,6.822,0,0,0,4.189,1.2c2.176,0,3.427-1.034,3.427-2.829,0-1.142-.272-2.23-3.7-2.938-3.046-.653-4.461-1.85-4.461-3.754,0-2.285,1.632-3.645,4.352-3.645a7.121,7.121,0,0,1,4.189,1.034l.218.163-.653.87-.218-.109a6.384,6.384,0,0,0-3.591-.87c-2.067,0-3.264.925-3.264,2.557,0,.816.381,2.013,3.536,2.611,3.264.653,4.624,1.85,4.624,4.026C288.075,231.484,286.388,232.9,283.559,232.9Z" transform="translate(-235.686 -190.629)"/><path class="a" d="M306.4,232.944c-4.679,0-6.8-3.536-6.8-7.072s2.122-7.072,6.8-7.072a6.652,6.652,0,0,1,3.862.979l.218.163-.653.816-.218-.109a6.193,6.193,0,0,0-3.264-.762c-3.427,0-5.658,2.339-5.658,6.039s2.23,6.038,5.658,6.038a6.193,6.193,0,0,0,3.264-.762l.218-.109.653.816-.218.163A7.658,7.658,0,0,1,306.4,232.944Z" transform="translate(-245.308 -190.675)"/><path class="a" d="M333.5,232.918h-1.088V226.39h-7.725v6.528H323.6V219.1h1.088v6.2h7.725v-6.2H333.5Z" transform="translate(-256.251 -190.811)"/><path class="a" d="M353.1,232.944c-4.08,0-6.8-2.829-6.8-7.072,0-3.536,2.122-7.072,6.8-7.072s6.8,3.536,6.8,7.072C359.9,230.115,357.18,232.944,353.1,232.944Zm0-13.111c-3.427,0-5.658,2.339-5.658,6.039s2.23,6.039,5.658,6.039,5.658-2.339,5.658-6.039S356.527,219.834,353.1,219.834Z" transform="translate(-266.602 -190.675)"/><path class="a" d="M381.9,232.944c-4.08,0-6.8-2.829-6.8-7.072,0-3.536,2.122-7.072,6.8-7.072s6.8,3.536,6.8,7.072C388.7,230.115,385.98,232.944,381.9,232.944Zm0-13.111c-3.427,0-5.658,2.339-5.658,6.039s2.23,6.039,5.658,6.039,5.658-2.339,5.658-6.039S385.327,219.834,381.9,219.834Z" transform="translate(-279.735 -190.675)"/><path class="a" d="M412.706,232.918H404.6V219.1h1.088v12.73h7.018Z" transform="translate(-293.186 -190.811)"/><path class="a" d="M210.1,232.918h-1.088V226.39h-7.725v6.528H200.2V219.1h1.088v6.2h7.725v-6.2H210.1Z" transform="translate(-199.982 -190.811)"/><path class="a" d="M205.947,192.027c-3.645,0-6.147-2.775-6.147-6.963s2.448-6.963,6.147-6.963c3.862,0,6.147,2.72,6.147,7.29v.218H201.051c.272,3.318,2.067,5.277,4.9,5.277a7.161,7.161,0,0,0,4.352-1.414l.163-.109.87.816-.163.163A7.788,7.788,0,0,1,205.947,192.027Zm-4.9-7.507h9.792c-.218-3.318-2.067-5.277-4.9-5.277S201.269,181.255,201.051,184.519Z" transform="translate(-199.8 -172.116)"/><path class="a" d="M234.263,187.011a10.745,10.745,0,0,1-6.8-1.9L227.3,185l.707-.979.163.109a10.2,10.2,0,0,0,6.093,1.686c3.21,0,5.059-1.523,5.059-4.189,0-2.067-.87-3.427-5.386-4.352-4.243-.87-6.256-2.557-6.256-5.168,0-3.155,2.285-5,6.039-5a10.083,10.083,0,0,1,5.875,1.469l.163.109-.707.979-.163-.109a9.82,9.82,0,0,0-5.168-1.251c-3.046,0-4.787,1.414-4.787,3.862,0,1.251.544,2.992,5.168,3.917,4.57.925,6.474,2.557,6.474,5.6C240.519,185,238.18,187.011,234.263,187.011Z" transform="translate(-212.34 -167.1)"/><path class="a" d="M266.72,187.011c-6.583,0-9.52-5-9.52-9.955s2.938-9.955,9.52-9.955,9.52,5,9.52,9.955S273.357,187.011,266.72,187.011Zm0-18.714c-5,0-8.269,3.427-8.269,8.759s3.264,8.759,8.269,8.759,8.269-3.427,8.269-8.759S271.779,168.3,266.72,168.3Z" transform="translate(-225.974 -167.1)"/><path class="a" d="M307.92,187.011c-6.583,0-9.52-5-9.52-9.955s2.938-9.955,9.52-9.955a9.139,9.139,0,0,1,5.44,1.36l.163.109-.707.925-.163-.109a8.521,8.521,0,0,0-4.733-1.142c-5,0-8.269,3.427-8.269,8.759s3.264,8.759,8.269,8.759a8.52,8.52,0,0,0,4.733-1.142l.163-.109.707.925-.163.109A8.515,8.515,0,0,1,307.92,187.011Z" transform="translate(-244.76 -167.1)"/><path class="a" d="M339.72,187.011c-6.583,0-9.52-5-9.52-9.955s2.938-9.955,9.52-9.955a9.138,9.138,0,0,1,5.44,1.36l.163.109-.707.925-.163-.109a8.521,8.521,0,0,0-4.733-1.142c-5,0-8.269,3.427-8.269,8.759s3.264,8.759,8.269,8.759a8.521,8.521,0,0,0,4.733-1.142l.163-.109.707.925-.163.109C343.909,186.576,342.059,187.011,339.72,187.011Z" transform="translate(-259.261 -167.1)"/><path class="a" d="M377.067,186.967H364.5V167.6h12.458v1.142H365.751v7.725h10.663v1.142H365.751v8.16h11.37v1.2Z" transform="translate(-274.901 -167.328)"/><path class="a" d="M408.7,186.967h-1.36l-5.168-8.65H396.3v8.65h-1.2V167.6h8.106c3.917,0,5.331,2.883,5.331,5.386,0,2.394-1.306,5.168-4.951,5.331Zm-12.4-9.792h6.909c3.645,0,4.08-2.938,4.08-4.189s-.381-4.189-4.08-4.189H396.3Z" transform="translate(-288.854 -167.328)"/></g><path class="b" d="M413,318.6" transform="translate(-201.524 -157.542)"/><path class="a" d="M435.1,344.3" transform="translate(-211.612 -169.261)"/><g transform="translate(0 0)"><path class="a" d="M82.925,24.172c.218.054,11.859.109,17.463.163a96.055,96.055,0,0,1,13.056,1.088c2.992.435,5.984.762,8.922,1.414a33.586,33.586,0,0,1,15.4,8.16c2.938,2.611,5.277,5.712,7.943,8.6,3.1,3.373,6.311,6.637,9.466,9.955a1.1,1.1,0,0,1,.326.979c-.109.49-.326,1.251-.435,1.958a17.078,17.078,0,0,0-.218,2.067c-3.155-1.469-6.039-2.883-9.194-4.352,2.23,2.666,4.352,5.331,6.528,7.943-.054.054-9.955-6.093-9.955-6.093s6.746,9.955,9.466,13.927c-.054.054-5.712-2.829-8.541-4.3-.054.054-.109.054-.163.109,2.448,6.855,4.9,13.709,7.4,20.781a12.327,12.327,0,0,1-1.85-.816,15.945,15.945,0,0,1-7.127-8.215,84.509,84.509,0,0,1-3.1-9.52A178.984,178.984,0,0,1,134.171,48a28.144,28.144,0,0,0-3.59-10.989,25.242,25.242,0,0,0-7.616-7.562c-.109-.054-.163-.109-.272-.163h-.218c1.686,2.394,3.318,4.787,5.059,7.29-.326-.163-.49-.218-.707-.326a36.959,36.959,0,0,0-12.621-3.862,90.973,90.973,0,0,0-12.186-.6c-2.883,0-5.712-.054-8.6,0-5.712.109-11.424.272-17.136.435-1.741.054-12.784.435-12.784.435l10.989.6s5.93.218,9.847.381c5.767.218,10.989.272,16.7.6a63.283,63.283,0,0,1,20.727,4.57,27.629,27.629,0,0,1,3.59,1.8h-.87c-2.992,0-5.984-.163-8.976.054-5.277.381-10.5.816-15.722,1.469-6.311.762-12.621,1.8-18.932,2.72-1.85.272-3.7.544-5.549.87.707-.054,1.469-.109,2.176-.109,5.549-.326,11.1-.653,16.647-.925l14.634-.653c3.59-.163,7.181-.326,10.826-.435,4.57-.163,7.453,2.122,9.085,6.365v.218c-1.034-.272-2.013-.6-2.992-.87a23.116,23.116,0,0,0-9.847-.054c-3.754.762-16.266,3.318-18.768,3.917-2.829.707-5.658,1.632-8.487,2.448-.109.054,3.645-.272,5.6-.6l19.584-3.1a22.9,22.9,0,0,1,7.943-.163,15.8,15.8,0,0,1,8,4.3.421.421,0,0,0,.054.163,15.372,15.372,0,0,0-1.578-.109,26.038,26.038,0,0,0-11.37,1.578c-4.243,1.523-8.378,3.318-12.567,5,.054.054.054.163.109.218.707-.218,1.414-.381,2.067-.6,4.515-1.251,9.085-2.5,13.6-3.7a15.161,15.161,0,0,1,3.808-.435,7.045,7.045,0,0,1,5.93,3.264,12.846,12.846,0,0,1,2.067,5.331,1.75,1.75,0,0,1-.49,1.523,9.144,9.144,0,0,1-6.256,3.754,11.409,11.409,0,0,1-5.223-.435c1.142-1.469,2.829-3.59,3.917-5,0-.054-2.72,1.958-3.754,2.611a48.118,48.118,0,0,1-12.567,6.147,29.105,29.105,0,0,1-16.973-.109c-.054,0-.109-.054-.272-.163,6.8-3.21,18.605-8.813,25.405-11.968-.054-.326-15.5,6.039-19.911,7.235a33.914,33.914,0,0,1-8.7,1.2A26.97,26.97,0,0,1,73.623,67.8a1.488,1.488,0,0,0-.272-.218c10.119-2.992,26.711-8,36.775-10.935-.054-.218-22.413,5.114-29.1,6.746a23.616,23.616,0,0,1-8.051.381,41,41,0,0,1-15.341-4.733,25.432,25.432,0,0,1-4.842-3.427c13.927-1.8,33.783-4.406,47.655-6.147,0-.218-7.888.218-8.813.326-3.21.272-6.419.544-9.629.87-4.733.435-9.411.87-14.144,1.36a74.218,74.218,0,0,1-9.847.653,22.223,22.223,0,0,1-10.445-3.1,42.683,42.683,0,0,1-8.7-6.909c-.054-.054-.054-.109-.163-.272,16.647-1.142,38.57-2.72,55.163-3.862,0-.218-5.277,0-5.277-.163H85.21c-2.774.054-5.549.109-8.323.218-5.821.272-11.7.544-17.517.87a69.336,69.336,0,0,1-9.52.272,30.224,30.224,0,0,1-19.693-8.7A25.947,25.947,0,0,1,27.545,28.2c-1.034-1.251-3.645-4.243-3.645-4.243S36.793,23.9,41.254,23.9C41.58,24.281,69.271,24.172,82.925,24.172Z" transform="translate(-23.9 -23.9)"/><path class="a" d="M426.76,24.172c-.218.054-11.86.109-17.463.163a96.054,96.054,0,0,0-13.056,1.088c-2.992.435-5.984.762-8.922,1.414a33.586,33.586,0,0,0-15.4,8.16c-2.938,2.611-5.277,5.712-7.943,8.6-3.1,3.373-6.31,6.637-9.466,9.955a1.1,1.1,0,0,0-.326.979c.109.49.326,1.251.435,1.958a17.077,17.077,0,0,1,.218,2.067c3.155-1.469,6.038-2.883,9.194-4.352-2.23,2.666-4.352,5.331-6.528,7.943.054.054,9.955-6.093,9.955-6.093S360.717,66.007,358,69.978c.054.054,5.712-2.829,8.541-4.3.054.054.109.054.163.109-2.448,6.855-4.9,13.709-7.4,20.781a12.324,12.324,0,0,0,1.85-.816,15.945,15.945,0,0,0,7.127-8.215,84.49,84.49,0,0,0,3.1-9.52A178.974,178.974,0,0,0,375.514,48a28.144,28.144,0,0,1,3.59-10.989,25.24,25.24,0,0,1,7.616-7.562c.109-.054.163-.109.272-.163h.218c-1.686,2.394-3.318,4.787-5.059,7.29.326-.163.49-.218.707-.326a36.96,36.96,0,0,1,12.621-3.862,90.971,90.971,0,0,1,12.186-.6c2.883,0,5.712-.054,8.6,0,5.712.109,11.424.272,17.136.435,1.741.054,12.784.435,12.784.435l-10.989.6s-5.93.218-9.847.381c-5.766.218-10.989.272-16.7.6a63.283,63.283,0,0,0-20.727,4.57,27.631,27.631,0,0,0-3.591,1.8h.87c2.992,0,5.984-.163,8.976.054,5.277.381,10.5.816,15.722,1.469,6.31.762,12.621,1.8,18.932,2.72,1.85.272,3.7.544,5.549.87-.707-.054-1.469-.109-2.176-.109-5.549-.326-11.1-.653-16.647-.925l-14.634-.653c-3.591-.163-7.181-.326-10.826-.435-4.57-.163-7.453,2.122-9.085,6.365v.218c1.033-.272,2.013-.6,2.992-.87a23.116,23.116,0,0,1,9.847-.054c3.754.762,16.266,3.318,18.768,3.917,2.829.707,5.658,1.632,8.487,2.448.109.054-3.645-.272-5.6-.6l-19.584-3.1a22.9,22.9,0,0,0-7.942-.163,15.8,15.8,0,0,0-8,4.3.421.421,0,0,1-.054.163,15.376,15.376,0,0,1,1.578-.109,26.038,26.038,0,0,1,11.37,1.578c4.243,1.523,8.378,3.318,12.567,5-.054.054-.054.163-.109.218-.707-.218-1.414-.381-2.067-.6-4.515-1.251-9.085-2.5-13.6-3.7a15.16,15.16,0,0,0-3.808-.435,7.045,7.045,0,0,0-5.93,3.264,12.846,12.846,0,0,0-2.067,5.331,1.75,1.75,0,0,0,.49,1.523,9.143,9.143,0,0,0,6.256,3.754,11.409,11.409,0,0,0,5.223-.435c-1.142-1.469-2.829-3.59-3.917-5,0-.054,2.72,1.958,3.754,2.611a48.12,48.12,0,0,0,12.567,6.147,29.105,29.105,0,0,0,16.973-.109c.054,0,.109-.054.272-.163-6.8-3.21-18.605-8.813-25.405-11.968.054-.326,15.5,6.039,19.911,7.235a33.913,33.913,0,0,0,8.7,1.2A26.97,26.97,0,0,0,436.062,67.8a1.5,1.5,0,0,1,.272-.218c-10.118-2.992-26.711-8-36.775-10.935.054-.218,22.413,5.114,29.1,6.746a23.616,23.616,0,0,0,8.051.381,41,41,0,0,0,15.341-4.733,25.432,25.432,0,0,0,4.842-3.427c-13.927-1.8-33.783-4.406-47.655-6.147,0-.218,7.888.218,8.813.326,3.21.272,6.419.544,9.629.87,4.733.435,9.411.87,14.144,1.36a74.22,74.22,0,0,0,9.847.653,22.223,22.223,0,0,0,10.445-3.1,42.683,42.683,0,0,0,8.7-6.909c.054-.054.054-.109.163-.272-16.647-1.142-38.57-2.72-55.163-3.862,0-.218,5.277,0,5.277-.163h3.373c2.774.054,5.549.109,8.323.218,5.821.272,11.7.544,17.517.87a69.334,69.334,0,0,0,9.52.272,30.224,30.224,0,0,0,19.693-8.7A25.95,25.95,0,0,0,482.14,28.2c1.034-1.251,3.645-4.243,3.645-4.243s-12.893-.054-17.354-.054C468.1,24.281,440.36,24.172,426.76,24.172Z" transform="translate(-174.794 -23.9)"/></g><g transform="translate(131.981 13.29)"><path class="a" d="M313.682,70.346a24.746,24.746,0,0,0-2.394-9.031A22.7,22.7,0,0,0,307.1,55.44a22.33,22.33,0,0,0-3.536-2.992c-.435-.326-.816-.49-1.034-.653a1.505,1.505,0,0,0-.381-.218h0l-.381-.218c-.272-.109-.6-.326-1.088-.6a20.553,20.553,0,0,0-4.352-1.632,21.867,21.867,0,0,0-7.181-.762,23.525,23.525,0,0,0-9.031,2.285,23.193,23.193,0,0,0-4.515,2.829,24.235,24.235,0,0,0-4.026,4.135c-.326.381-.6.816-.87,1.2-.109.218-.272.435-.381.653l-.218.326-.218.326c-.109.218-.272.435-.381.653s-.218.435-.326.707c-.218.435-.435.925-.653,1.414a19.241,19.241,0,0,0-.979,2.992c-.163.49-.218,1.034-.381,1.578a4.206,4.206,0,0,0-.109.816,4.2,4.2,0,0,0-.109.816,23.2,23.2,0,0,0,2.176,13,23.782,23.782,0,0,0,9.194,10.064c1.034.544,2.067,1.088,3.1,1.523a23.449,23.449,0,0,0,3.318,1.034,24.936,24.936,0,0,0,3.427.544,24.029,24.029,0,0,0,3.427.054A23.465,23.465,0,0,0,304,90.855l.653-.49.653-.49c.381-.381.816-.707,1.2-1.088a21.665,21.665,0,0,0,2.122-2.339c.326-.435.653-.816.925-1.251.163-.218.272-.435.435-.653.109-.218.272-.435.381-.653.272-.435.49-.87.762-1.306.218-.435.435-.87.653-1.36a22.682,22.682,0,0,0,1.632-5.495A25.923,25.923,0,0,0,313.682,70.346Z" transform="translate(-266.775 -48.33)"/><path class="a" d="M290.39,49.216a23.753,23.753,0,0,1,5.821.762,22.853,22.853,0,0,1,4.189,1.578,3.135,3.135,0,0,1,.762.435c.109.054.163.109.272.163l.326.218.326.218a1.191,1.191,0,0,0,.272.163,8.247,8.247,0,0,1,.762.49,19.264,19.264,0,0,1,3.427,2.883,22.82,22.82,0,0,1,4.026,5.658,23.77,23.77,0,0,1,2.339,8.7,23.371,23.371,0,0,1-.272,5.168,22.768,22.768,0,0,1-1.578,5.331c-.109.272-.272.6-.435.925-.054.109-.109.272-.163.381a3.036,3.036,0,0,1-.272.435,6.467,6.467,0,0,1-.49.816l-.272.381-.163.218c-.109.109-.163.272-.272.381-.054.054-.109.163-.163.218-.218.326-.435.6-.653.925l-.218.272c-.762.925-1.414,1.632-2.013,2.23h0c-.272.272-.544.49-.816.762-.109.109-.218.163-.326.272l-.6.49a2.413,2.413,0,0,1-.6.435,22.97,22.97,0,0,1-11.968,4.3,10.485,10.485,0,0,1-1.306.054c-.653,0-1.306,0-2.013-.054a19.433,19.433,0,0,1-3.264-.544,25.873,25.873,0,0,1-3.21-.979,21.616,21.616,0,0,1-2.992-1.469,23.073,23.073,0,0,1-8.867-9.683,22.762,22.762,0,0,1-2.067-12.567,3.671,3.671,0,0,1,.109-.762l.054-.435.054-.326c.054-.163.054-.272.109-.435a7.952,7.952,0,0,1,.272-1.088h0a18.07,18.07,0,0,1,.979-2.883l.163-.326c.163-.381.326-.707.49-1.034.054-.109.109-.163.109-.272a.877.877,0,0,1,.218-.381l.381-.653.163-.326.163-.326.381-.6a2.307,2.307,0,0,0,.272-.381c.218-.272.381-.544.6-.816a22.341,22.341,0,0,1,3.863-3.971,23.118,23.118,0,0,1,4.406-2.774,23.409,23.409,0,0,1,8.759-2.23,4.148,4.148,0,0,0,.925.054m0-.816a8.036,8.036,0,0,0-1.142.054,23.525,23.525,0,0,0-9.031,2.285,23.192,23.192,0,0,0-4.515,2.829,24.232,24.232,0,0,0-4.026,4.134c-.326.381-.6.816-.87,1.2-.109.218-.272.435-.381.653l-.218.326-.218.326c-.109.218-.272.435-.381.653s-.218.435-.326.707c-.218.435-.435.925-.653,1.414a19.233,19.233,0,0,0-.979,2.992c-.163.49-.218,1.034-.381,1.578a4.2,4.2,0,0,0-.109.816,4.2,4.2,0,0,0-.109.816,23.2,23.2,0,0,0,2.176,13,23.782,23.782,0,0,0,9.194,10.064c1.034.544,2.067,1.088,3.1,1.523a23.447,23.447,0,0,0,3.319,1.034,24.931,24.931,0,0,0,3.427.544c.707.054,1.36.109,2.067.109a11.37,11.37,0,0,0,1.36-.054,23.466,23.466,0,0,0,12.4-4.461l.653-.49.653-.49c.381-.381.816-.707,1.2-1.088a21.666,21.666,0,0,0,2.122-2.339c.326-.435.653-.816.925-1.251.163-.218.272-.435.435-.653.109-.218.272-.435.381-.653.272-.435.49-.87.762-1.306.218-.435.435-.87.653-1.36a22.672,22.672,0,0,0,1.632-5.494,22.344,22.344,0,0,0,.272-5.331,24.742,24.742,0,0,0-2.394-9.031,22.693,22.693,0,0,0-4.189-5.875,22.336,22.336,0,0,0-3.536-2.992c-.435-.326-.816-.49-1.034-.653a1.506,1.506,0,0,0-.381-.218h0l-.381-.218c-.272-.109-.6-.326-1.088-.6a20.553,20.553,0,0,0-4.352-1.632,21.785,21.785,0,0,0-6.038-.87Z" transform="translate(-266.82 -48.362)"/><path class="c" d="M313.338,72.393a22.448,22.448,0,0,0-2.176-8.16,21.681,21.681,0,0,0-3.754-5.331,19.324,19.324,0,0,0-3.21-2.72,8.169,8.169,0,0,0-.925-.6,1.345,1.345,0,0,1-.326-.218h0l-.326-.163c-.218-.109-.544-.326-.979-.544a18.739,18.739,0,0,0-3.917-1.469,20.859,20.859,0,0,0-6.474-.707,21.246,21.246,0,0,0-8.215,2.067,20.133,20.133,0,0,0-4.134,2.611,21.727,21.727,0,0,0-3.645,3.754A13.2,13.2,0,0,0,274.5,62c-.109.163-.218.381-.381.6l-.163.272-.163.326c-.109.218-.218.381-.326.6a5.938,5.938,0,0,1-.326.6c-.218.435-.381.87-.6,1.306-.326.87-.653,1.8-.925,2.72-.109.49-.218.925-.326,1.414-.054.218-.054.49-.109.707s-.054.49-.109.707a21.352,21.352,0,0,0,1.958,11.805,21.1,21.1,0,0,0,8.378,9.085,27.028,27.028,0,0,0,2.829,1.36,19.042,19.042,0,0,0,2.992.925,20.409,20.409,0,0,0,3.1.49,29.493,29.493,0,0,0,3.1.054,21.838,21.838,0,0,0,11.261-4.026c.218-.163.381-.272.6-.435l.544-.435c.381-.326.762-.653,1.088-.979a17.668,17.668,0,0,0,1.9-2.122c.272-.381.6-.762.816-1.142.109-.218.272-.381.381-.6a3.66,3.66,0,0,1,.381-.6,12.989,12.989,0,0,0,.653-1.2c.218-.435.381-.816.6-1.2a20.965,20.965,0,0,0,1.686-9.847ZM294.08,52.918a20.092,20.092,0,0,1,3.482.6,16.954,16.954,0,0,1,3.862,1.469l.979.49.326.163a2.476,2.476,0,0,1,.326.218c.163.109.381.218.653.381a24.574,24.574,0,0,1,2.557,2.992h-.272c-.218,0-.49.054-.707.054l-.816.163c-.163.054-.272.054-.435.109a3.467,3.467,0,0,0-.381.109,1.009,1.009,0,0,1-.381.109.773.773,0,0,1-.326.109,2.133,2.133,0,0,0-.49.218c-.054,0-.054.054-.109.054a31.993,31.993,0,0,0-7.671-2.829,3.106,3.106,0,0,1-.381-.435,8.683,8.683,0,0,0-.707-.707l-.816-.816c-.544-.544-1.142-1.088-1.578-1.523a2.361,2.361,0,0,1-.381-.326A10.838,10.838,0,0,1,294.08,52.918ZM294.624,70h0c-.054.109-.054.218-.109.326a7.753,7.753,0,0,0-.326,1.142c-.109.49-.272,1.034-.435,1.578-.163.6-.381,1.2-.544,1.8l-.653,1.8-.326.816c-.109.272-.163.49-.272.707-.218.544-.381.979-.49,1.2-1.686.326-6.256,1.142-7.888,1.414l-.109-.109c-.218-.163-.49-.435-.816-.707a4.9,4.9,0,0,0-.544-.49l-.6-.6-.326-.326a1.442,1.442,0,0,1-.272-.326,8.13,8.13,0,0,1-.6-.707,6.137,6.137,0,0,1-.544-.707c-.163-.218-.381-.49-.544-.707-.326-.49-.653-.925-.87-1.306s-.435-.707-.544-.925a.053.053,0,0,0-.054-.054,39.714,39.714,0,0,1,2.72-8.215c.054,0,.109-.054.163-.054a7.882,7.882,0,0,1,1.034-.326c.435-.163.925-.272,1.469-.435.272-.054.544-.163.87-.218.272-.054.6-.163.87-.218s.6-.109.87-.163.6-.109.871-.163.544-.054.816-.109a3.347,3.347,0,0,1,.707-.054,8.462,8.462,0,0,1,1.088-.054A80.41,80.41,0,0,0,294.624,70ZM281.3,56.345a3.519,3.519,0,0,1,.49-.435,1.44,1.44,0,0,1,.326-.272,27.073,27.073,0,0,1,8.16-1.85l.544.544c.381.435.979.979,1.469,1.578a10.9,10.9,0,0,1,.762.87,7.072,7.072,0,0,1,.653.762l.109.109a48.674,48.674,0,0,0-4.461,5.386,2.357,2.357,0,0,1-.272.054c-.272.054-.653.109-1.088.163-.218.054-.49.109-.707.163l-.816.163c-.272.054-.544.109-.871.163a5.094,5.094,0,0,0-.87.218c-.6.163-1.2.272-1.741.381s-1.088.272-1.523.381-.762.163-1.034.218a27.9,27.9,0,0,0-2.829-3.373,3.121,3.121,0,0,1,.218-.381,2.2,2.2,0,0,1,.272-.49,5.956,5.956,0,0,0,.326-.6c.109-.218.272-.435.381-.653.163-.218.272-.435.435-.653.054-.109.163-.218.218-.326l.272-.326.49-.653c.163-.218.381-.381.544-.6A5.138,5.138,0,0,1,281.3,56.345Zm-8.269,9.52a8.683,8.683,0,0,1,.544-1.251,5.3,5.3,0,0,0,.272-.6c.109-.218.218-.381.327-.6l.163-.272.163-.272a3.66,3.66,0,0,1,.381-.6c.272-.381.49-.707.762-1.088a20.581,20.581,0,0,1,3.482-3.7,19.325,19.325,0,0,1,1.686-1.251l-.326.326c-.163.218-.381.381-.544.6s-.381.435-.544.653l-.272.326c-.109.109-.163.218-.272.326l-.49.653c-.163.218-.272.435-.435.653a3.248,3.248,0,0,0-.326.6,2.2,2.2,0,0,0-.272.49,2.369,2.369,0,0,1-.218.381c-.054.054-.054.163-.109.163a18.574,18.574,0,0,0-4.189,4.787A1.137,1.137,0,0,0,273.026,65.865Zm-1.36,5.44a3.183,3.183,0,0,1,.109-.707c.055-.218.055-.49.109-.707a12.313,12.313,0,0,1,.326-1.36c0-.109.054-.163.054-.272a24.98,24.98,0,0,0,.218,6.365c0,.054-.054.109-.054.218a5.782,5.782,0,0,0-.163.762,1.507,1.507,0,0,0-.054.49c0,.163-.054.381-.054.544a2.231,2.231,0,0,1-.054.6v1.088A20.467,20.467,0,0,1,271.666,71.305Zm6.2,17.082-.816-.816c-.653-.762-1.306-1.523-1.9-2.339a24.362,24.362,0,0,1-1.523-2.557c-.326-.653-.6-1.36-.87-2.013-.054-.163-.054-.381-.109-.6a1.5,1.5,0,0,1-.054-.49c0-.163-.054-.381-.054-.544s-.055-.381-.055-.6v-1.2a2.227,2.227,0,0,1,.055-.6c0-.163.054-.381.054-.544s.054-.326.054-.49a4.52,4.52,0,0,0,.109-.707c.87-.163,2.666-.381,4.3-.6.163.218.381.49.653.87s.6.816.979,1.251c.163.218.381.49.544.707s.381.49.544.707c.218.218.381.49.6.707a2.3,2.3,0,0,1,.272.381,1.441,1.441,0,0,1,.272.326c.163.218.381.435.544.653s.326.381.49.6c.326.326.544.653.762.87.054.054.054.109.109.109a36.083,36.083,0,0,0,.218,6.691c-.272.054-1.632.163-1.85.163h-.6a8.04,8.04,0,0,0-1.142.054h-1.578Zm15.45,5.821a20.562,20.562,0,0,1-11.533-2.829l-1.306-.816c-.435-.272-.816-.6-1.2-.87-.272-.218-.6-.49-.87-.707H281.3a1.678,1.678,0,0,0,.544-.054c.381,0,.707-.054.979-.054a2.04,2.04,0,0,0,.6-.054,32.54,32.54,0,0,0,8.051,2.611,1.74,1.74,0,0,0,.326.381,5.773,5.773,0,0,1,.49.6c.109.109.163.218.272.326l.326.326.326.326.327.326a4.908,4.908,0,0,1,.544.49A1.793,1.793,0,0,0,293.318,94.208ZM307.136,87.9l-.707.707c-.326.326-.707.6-1.034.925l-.544.435a5.709,5.709,0,0,1-.6.435,20.253,20.253,0,0,1-6.365,3.046c-2.394.6-3.155.49-3.427.381h0a4.919,4.919,0,0,0-.544-.49c-.109-.109-.163-.218-.272-.326a855.66,855.66,0,0,1-.544-.653c-.109-.109-.163-.218-.272-.326a5.775,5.775,0,0,0-.49-.6l-.163-.163a20.421,20.421,0,0,0,4.951-5.223h.272a1.352,1.352,0,0,0,.435-.054,2.807,2.807,0,0,0,.6-.109c.218-.054.49-.054.707-.109.272-.054.49-.109.762-.163a4.528,4.528,0,0,0,.816-.218,5.1,5.1,0,0,0,.871-.218c.272-.109.544-.163.87-.272.272-.109.544-.163.816-.272s.544-.163.762-.272a3.328,3.328,0,0,1,.653-.272,1.7,1.7,0,0,0,.544-.272h0c.435.6,1.632,2.394,2.23,3.264C307.626,87.19,307.571,87.408,307.136,87.9Zm-1.686-4.678-.326.163a5.043,5.043,0,0,0-.544.272c-.218.109-.435.163-.653.272s-.49.163-.762.272-.544.163-.816.272c-.272.054-.544.163-.816.218a4.532,4.532,0,0,1-.816.218l-.816.163c-.272.054-.544.109-.762.163-.272.054-.49.054-.707.109-.218,0-.435.054-.6.054a1.061,1.061,0,0,0-.435.054h-.218c-.816-.979-3.7-4.352-4.95-5.767.109-.272.272-.707.435-1.2.109-.218.163-.49.272-.762s.163-.544.272-.816c.218-.6.435-1.2.6-1.8.218-.6.435-1.251.653-1.8a4.8,4.8,0,0,0,.272-.816,4.016,4.016,0,0,0,.218-.762,7.785,7.785,0,0,0,.326-1.142c0-.054.055-.109.055-.163a64.63,64.63,0,0,0,7.725-1.85l.163.163a3.114,3.114,0,0,0,.435.381l.49.49a5.774,5.774,0,0,1,.49.6,73922.493,73922.493,0,0,0,1.088,1.306c.381.435.707.925,1.034,1.36a4.533,4.533,0,0,1,.435.653c.163.218.272.381.381.544.326.49.6.87.707,1.088A26.135,26.135,0,0,1,305.45,83.219Zm3.264-8.65c-.163-.218-.326-.544-.6-.925a5.743,5.743,0,0,1-.381-.6c-.163-.218-.272-.435-.435-.653-.326-.435-.653-.925-1.034-1.36a6.171,6.171,0,0,0-.544-.707c-.163-.218-.381-.435-.544-.653a5.766,5.766,0,0,0-.49-.6c-.163-.163-.326-.381-.49-.544a3.282,3.282,0,0,0-.435-.435l-.272-.272a25.048,25.048,0,0,0-.816-7.181,3.23,3.23,0,0,1,.435-.218c.109-.054.163-.109.272-.163l.326-.163a2.65,2.65,0,0,1,.381-.163,1.008,1.008,0,0,1,.381-.109c.272-.054.544-.163.762-.218a3.744,3.744,0,0,1,.707-.109,1.874,1.874,0,0,1,.49-.054h.163c1.686,1.36,2.774,2.774,4.679,5.767A19.853,19.853,0,0,1,312.9,72.23v.435A11.8,11.8,0,0,1,308.714,74.569Z" transform="translate(-268.661 -50.214)"/></g></svg>