<svg xmlns="http://www.w3.org/2000/svg" width="32" height="32" viewBox="0 0 32 32">
  <g id="monitor" transform="translate(-1 -1)">
    <path id="Path_21782" data-name="Path 21782" d="M27,6.382v5.8l5.8-2.9Zm1.032,1.67,2.459,1.229-2.459,1.229Z" transform="translate(-12.581 -2.604)" fill="#fff"/>
    <path id="Path_21783" data-name="Path 21783" d="M31.452,6.161h-8.8a5.674,5.674,0,0,0-11.3,0h-8.8A1.55,1.55,0,0,0,1,7.71V31.452A1.55,1.55,0,0,0,2.548,33h28.9A1.55,1.55,0,0,0,33,31.452V7.71a1.55,1.55,0,0,0-1.548-1.548ZM17,2.032a4.645,4.645,0,1,1-4.645,4.645A4.65,4.65,0,0,1,17,2.032ZM2.548,7.194h8.8a5.674,5.674,0,0,0,11.3,0h8.8a.516.516,0,0,1,.516.516v16H15.452V20.1a4.651,4.651,0,0,0-3.765-4.559,3.613,3.613,0,1,0-4.858,0A4.651,4.651,0,0,0,3.065,20.1V23.71H2.032v-16a.516.516,0,0,1,.516-.516Zm9.29,11.355V23.71H6.677V18.548H5.645V23.71H4.1V20.1A3.618,3.618,0,0,1,7.71,16.484h.365l-.384,4.324,1.567,1.567,1.567-1.567-.385-4.324h.365A3.618,3.618,0,0,1,14.419,20.1V23.71H12.871V18.548Zm-2.084,1.87-.5.5-.5-.5.35-3.934h.294Zm-.5-4.967a2.581,2.581,0,1,1,2.581-2.581A2.584,2.584,0,0,1,9.258,15.452ZM31.452,31.968H2.548a.516.516,0,0,1-.516-.516v-6.71H31.968v6.71A.516.516,0,0,1,31.452,31.968Z" transform="translate(0 0)" fill="#fff"/>
    <circle id="Ellipse_815" data-name="Ellipse 815" cx="0.5" cy="0.5" r="0.5" transform="translate(10 28)" fill="#fff"/>
    <path id="Path_21784" data-name="Path 21784" d="M31.323,50.032H14.793a2.554,2.554,0,0,0-4.1,0H6.548a1.548,1.548,0,1,0,0,3.1h4.142a2.554,2.554,0,0,0,4.1,0h16.53a1.548,1.548,0,0,0,0-3.1ZM6.548,52.1a.516.516,0,0,1,0-1.032h3.665a2.581,2.581,0,0,0,0,1.032Zm6.194,1.032a1.548,1.548,0,1,1,1.548-1.548A1.55,1.55,0,0,1,12.742,53.129ZM31.323,52.1H15.27a2.581,2.581,0,0,0,0-1.032H31.323a.516.516,0,0,1,0,1.032Z" transform="translate(-1.935 -23.226)" fill="#fff"/>
    <path id="Path_21785" data-name="Path 21785" d="M38.548,34.29h8.258a1.55,1.55,0,0,0,1.548-1.548V26.548A1.55,1.55,0,0,0,46.806,25H38.548A1.55,1.55,0,0,0,37,26.548v6.194A1.55,1.55,0,0,0,38.548,34.29Zm-.516-7.742a.516.516,0,0,1,.516-.516h8.258a.516.516,0,0,1,.516.516v6.194a.516.516,0,0,1-.516.516H38.548a.516.516,0,0,1-.516-.516Z" transform="translate(-17.419 -11.613)" fill="#fff"/>
    <path id="Path_21786" data-name="Path 21786" d="M41,29h7.226v1.032H41Z" transform="translate(-19.355 -13.548)" fill="#fff"/>
    <path id="Path_21787" data-name="Path 21787" d="M41,33h7.226v1.032H41Z" transform="translate(-19.355 -15.484)" fill="#fff"/>
    <path id="Path_21788" data-name="Path 21788" d="M53,37h1.032v1.032H53Z" transform="translate(-25.161 -17.419)" fill="#fff"/>
    <path id="Path_21789" data-name="Path 21789" d="M41,37h5.161v1.032H41Z" transform="translate(-19.355 -17.419)" fill="#fff"/>
    <path id="Path_21790" data-name="Path 21790" d="M5,15H6.032v1.032H5Z" transform="translate(-1.935 -6.774)" fill="#fff"/>
    <path id="Path_21791" data-name="Path 21791" d="M5,19H6.032v1.032H5Z" transform="translate(-1.935 -8.71)" fill="#fff"/>
    <path id="Path_21792" data-name="Path 21792" d="M5,23H6.032v1.032H5Z" transform="translate(-1.935 -10.645)" fill="#fff"/>
  </g>
</svg>
