<svg xmlns="http://www.w3.org/2000/svg" width="24.64" height="26.201" viewBox="0 0 24.64 26.201"><defs><style>.a{fill:none;stroke:#a6a6a6;}</style></defs><g transform="translate(-52.502 -78.336)"><path class="a" d="M184.9,465.044a4.5,4.5,0,0,0,8.24,0Z" transform="translate(-124.202 -363.695)"/><path class="a" d="M75.732,99.6H53.911a.889.889,0,0,1-.877-.682.848.848,0,0,1,.467-.965,4.63,4.63,0,0,0,1.409-1.916c1.214-2.565,1.469-6.179,1.469-8.759a8.442,8.442,0,0,1,16.884-.034c0,.011,0,.022,0,.034,0,2.58.255,6.194,1.469,8.759a4.629,4.629,0,0,0,1.409,1.916.848.848,0,0,1,.467.965A.889.889,0,0,1,75.732,99.6Zm.42-1.641h0Z"/></g></svg>