<svg xmlns="http://www.w3.org/2000/svg" width="27.912" height="27.901" viewBox="0 0 27.912 27.901"><defs><style>.a{fill:#fff;}</style></defs><g transform="translate(-18 -20.703)"><g transform="translate(18 20.703)"><path class="a" d="M326.4,283.41a1.3,1.3,0,1,0,.915-.378A1.3,1.3,0,0,0,326.4,283.41Z" transform="translate(-308.778 -269.081)"/><path class="a" d="M27.567,26l-.034-.034-1.439-6.048a5.7,5.7,0,0,0-5.562-4.394h-.041a.545.545,0,0,0,0,1.09h.041a4.612,4.612,0,0,1,4.5,3.556l1.029,4.325L21.422,19.85a.545.545,0,0,0-.385-.16H18.61a.544.544,0,0,0-.2.038,8.926,8.926,0,0,0-8.912,0,.544.544,0,0,0-.2-.038H6.876a.545.545,0,0,0-.385.16L1.846,24.494l1.023-4.323a4.611,4.611,0,0,1,4.5-3.562h4.181a3.63,3.63,0,0,0,4.964-.16.545.545,0,0,0,.16-.385v-2.8a5.165,5.165,0,0,0,2.33-3.386h.424a1.855,1.855,0,0,0,1.853-1.853V7.735A1.855,1.855,0,0,0,19.43,5.883H19.1V5.254a5.152,5.152,0,1,0-10.3,0v.629H8.468A1.855,1.855,0,0,0,6.615,7.735v.294A1.855,1.855,0,0,0,8.468,9.882h.424a5.165,5.165,0,0,0,2.33,3.386V15.52H7.372a5.717,5.717,0,0,0-5.564,4.4L.379,25.962.345,26A1.176,1.176,0,0,0,1.176,28h3.69a.545.545,0,0,0,.469-.267l1.829-3.09.167.108a1.479,1.479,0,0,0,.522.208,6.558,6.558,0,0,0-.492,2.5.545.545,0,1,0,1.09,0A5.479,5.479,0,0,1,9.7,23.972l2.313,2.313a2.257,2.257,0,0,0-.327,1.173.545.545,0,1,0,1.09,0,1.181,1.181,0,0,1,2.362,0,.545.545,0,1,0,1.09,0,2.257,2.257,0,0,0-.327-1.173l2.313-2.313a5.479,5.479,0,0,1,1.248,3.486.545.545,0,0,0,1.09,0,6.558,6.558,0,0,0-.492-2.5,1.479,1.479,0,0,0,.522-.208l.167-.108,1.829,3.09a.545.545,0,0,0,.469.267h3.69A1.176,1.176,0,0,0,27.567,26ZM20.193,7.735v.294a.764.764,0,0,1-.763.763H19.1V6.973h.329A.764.764,0,0,1,20.193,7.735ZM9.887,5.254a4.062,4.062,0,1,1,8.124,0v.629H16.58a1.552,1.552,0,0,1-.8-.219,7.054,7.054,0,0,0,.856-.73.545.545,0,0,0-.771-.771,5.83,5.83,0,0,1-4.15,1.719H9.887V5.254ZM7.705,8.029V7.735a.764.764,0,0,1,.763-.763H8.8v1.82H8.468A.764.764,0,0,1,7.705,8.029ZM9.887,8.9V6.973h1.829a6.931,6.931,0,0,0,3.062-.706,2.633,2.633,0,0,0,1.8.706h1.431V8.9a4.062,4.062,0,0,1-8.124,0Zm4.062,5.151a5.131,5.131,0,0,0,1.637-.267v2.041a2.545,2.545,0,0,1-3.274,0V13.785A5.132,5.132,0,0,0,13.949,14.051Zm3.81,6.56-.442.756a1.487,1.487,0,0,0-.144.336,6.582,6.582,0,0,0-6.435,0,1.487,1.487,0,0,0-.144-.336l-.442-.756a7.835,7.835,0,0,1,7.606,0Zm-13.2,6.3H1.176a.086.086,0,0,1-.061-.147l3.1-3.1L5.634,25.09Zm2.722-3.491a.545.545,0,0,0-.764.181l-.307.518L4.984,22.9,7.1,20.78H8.989l.664,1.137a.4.4,0,0,1-.041.464L8.445,23.758a.4.4,0,0,1-.525.078Zm5.506,2.092L10.47,23.2a5.494,5.494,0,0,1,6.972,0l-2.313,2.313a2.267,2.267,0,0,0-2.346,0Zm7.851-2.092-.643.413a.4.4,0,0,1-.525-.078L18.3,22.381a.4.4,0,0,1-.041-.464l.664-1.137H20.81L22.928,22.9l-1.223,1.223L21.4,23.6a.545.545,0,0,0-.764-.181Zm6.18,3.438a.078.078,0,0,1-.079.053H23.357L22.278,25.09,23.7,23.669l3.1,3.1A.078.078,0,0,1,26.815,26.86Z" transform="translate(0 -0.102)"/></g></g></svg>